<svg width="1350" height="156" viewBox="0 0 1350 156" fill="none" xmlns="http://www.w3.org/2000/svg">
<path d="M24 30C24 13.4315 37.4315 0 54 0H1320C1336.57 0 1350 13.4315 1350 30V126C1350 142.569 1336.57 156 1320 156H54C37.4315 156 24 142.569 24 126V30Z" fill="#FFB800"/>
<mask id="path-2-outside-1_214_243" maskUnits="userSpaceOnUse" x="273" y="56" width="778" height="46" fill="black">
<rect fill="white" x="273" y="56" width="778" height="46"/>
<path d="M304.836 60.544L292.212 94H287.172L274.548 60.544H279.204L289.716 89.392L300.228 60.544H304.836ZM311.882 63.424C311.05 63.424 310.346 63.136 309.77 62.56C309.194 61.984 308.906 61.28 308.906 60.448C308.906 59.616 309.194 58.912 309.77 58.336C310.346 57.76 311.05 57.472 311.882 57.472C312.682 57.472 313.354 57.76 313.898 58.336C314.474 58.912 314.762 59.616 314.762 60.448C314.762 61.28 314.474 61.984 313.898 62.56C313.354 63.136 312.682 63.424 311.882 63.424ZM313.994 67.696V94H309.626V67.696H313.994ZM325.806 58.48V94H321.438V58.48H325.806ZM331.619 80.752C331.619 78.064 332.163 75.712 333.251 73.696C334.339 71.648 335.827 70.064 337.715 68.944C339.635 67.824 341.763 67.264 344.099 67.264C346.403 67.264 348.403 67.76 350.099 68.752C351.795 69.744 353.059 70.992 353.891 72.496V67.696H358.307V94H353.891V89.104C353.027 90.64 351.731 91.92 350.003 92.944C348.307 93.936 346.323 94.432 344.051 94.432C341.715 94.432 339.603 93.856 337.715 92.704C335.827 91.552 334.339 89.936 333.251 87.856C332.163 85.776 331.619 83.408 331.619 80.752ZM353.891 80.8C353.891 78.816 353.491 77.088 352.691 75.616C351.891 74.144 350.803 73.024 349.427 72.256C348.083 71.456 346.595 71.056 344.963 71.056C343.331 71.056 341.843 71.44 340.499 72.208C339.155 72.976 338.083 74.096 337.283 75.568C336.483 77.04 336.083 78.768 336.083 80.752C336.083 82.768 336.483 84.528 337.283 86.032C338.083 87.504 339.155 88.64 340.499 89.44C341.843 90.208 343.331 90.592 344.963 90.592C346.595 90.592 348.083 90.208 349.427 89.44C350.803 88.64 351.891 87.504 352.691 86.032C353.491 84.528 353.891 82.784 353.891 80.8ZM396.101 94L388.133 80.32H382.853V94H378.485V60.544H389.285C391.813 60.544 393.941 60.976 395.669 61.84C397.429 62.704 398.741 63.872 399.605 65.344C400.469 66.816 400.901 68.496 400.901 70.384C400.901 72.688 400.229 74.72 398.885 76.48C397.573 78.24 395.589 79.408 392.933 79.984L401.333 94H396.101ZM382.853 76.816H389.285C391.653 76.816 393.429 76.24 394.613 75.088C395.797 73.904 396.389 72.336 396.389 70.384C396.389 68.4 395.797 66.864 394.613 65.776C393.461 64.688 391.685 64.144 389.285 64.144H382.853V76.816ZM419.16 94.432C416.696 94.432 414.456 93.872 412.44 92.752C410.456 91.632 408.888 90.048 407.736 88C406.616 85.92 406.056 83.52 406.056 80.8C406.056 78.112 406.632 75.744 407.784 73.696C408.968 71.616 410.568 70.032 412.584 68.944C414.6 67.824 416.856 67.264 419.352 67.264C421.848 67.264 424.104 67.824 426.12 68.944C428.136 70.032 429.72 71.6 430.872 73.648C432.056 75.696 432.648 78.08 432.648 80.8C432.648 83.52 432.04 85.92 430.824 88C429.64 90.048 428.024 91.632 425.976 92.752C423.928 93.872 421.656 94.432 419.16 94.432ZM419.16 90.592C420.728 90.592 422.2 90.224 423.576 89.488C424.952 88.752 426.056 87.648 426.888 86.176C427.752 84.704 428.184 82.912 428.184 80.8C428.184 78.688 427.768 76.896 426.936 75.424C426.104 73.952 425.016 72.864 423.672 72.16C422.328 71.424 420.872 71.056 419.304 71.056C417.704 71.056 416.232 71.424 414.888 72.16C413.576 72.864 412.52 73.952 411.72 75.424C410.92 76.896 410.52 78.688 410.52 80.8C410.52 82.944 410.904 84.752 411.672 86.224C412.472 87.696 413.528 88.8 414.84 89.536C416.152 90.24 417.592 90.592 419.16 90.592ZM470.023 67.216C472.071 67.216 473.895 67.648 475.495 68.512C477.095 69.344 478.359 70.608 479.287 72.304C480.215 74 480.679 76.064 480.679 78.496V94H476.359V79.12C476.359 76.496 475.703 74.496 474.391 73.12C473.111 71.712 471.367 71.008 469.159 71.008C466.887 71.008 465.079 71.744 463.735 73.216C462.391 74.656 461.719 76.752 461.719 79.504V94H457.399V79.12C457.399 76.496 456.743 74.496 455.431 73.12C454.151 71.712 452.407 71.008 450.199 71.008C447.927 71.008 446.119 71.744 444.775 73.216C443.431 74.656 442.759 76.752 442.759 79.504V94H438.391V67.696H442.759V71.488C443.623 70.112 444.775 69.056 446.215 68.32C447.687 67.584 449.303 67.216 451.063 67.216C453.271 67.216 455.223 67.712 456.919 68.704C458.615 69.696 459.879 71.152 460.711 73.072C461.447 71.216 462.663 69.776 464.359 68.752C466.055 67.728 467.943 67.216 470.023 67.216ZM486.212 80.752C486.212 78.064 486.756 75.712 487.844 73.696C488.932 71.648 490.42 70.064 492.308 68.944C494.228 67.824 496.356 67.264 498.692 67.264C500.996 67.264 502.996 67.76 504.692 68.752C506.388 69.744 507.652 70.992 508.484 72.496V67.696H512.9V94H508.484V89.104C507.62 90.64 506.324 91.92 504.596 92.944C502.9 93.936 500.916 94.432 498.644 94.432C496.308 94.432 494.196 93.856 492.308 92.704C490.42 91.552 488.932 89.936 487.844 87.856C486.756 85.776 486.212 83.408 486.212 80.752ZM508.484 80.8C508.484 78.816 508.084 77.088 507.284 75.616C506.484 74.144 505.396 73.024 504.02 72.256C502.676 71.456 501.188 71.056 499.556 71.056C497.924 71.056 496.436 71.44 495.092 72.208C493.748 72.976 492.676 74.096 491.876 75.568C491.076 77.04 490.676 78.768 490.676 80.752C490.676 82.768 491.076 84.528 491.876 86.032C492.676 87.504 493.748 88.64 495.092 89.44C496.436 90.208 497.924 90.592 499.556 90.592C501.188 90.592 502.676 90.208 504.02 89.44C505.396 88.64 506.484 87.504 507.284 86.032C508.084 84.528 508.484 82.784 508.484 80.8ZM533.098 67.216C536.298 67.216 538.89 68.192 540.874 70.144C542.858 72.064 543.85 74.848 543.85 78.496V94H539.53V79.12C539.53 76.496 538.874 74.496 537.562 73.12C536.25 71.712 534.458 71.008 532.186 71.008C529.882 71.008 528.042 71.728 526.666 73.168C525.322 74.608 524.65 76.704 524.65 79.456V94H520.282V67.696H524.65V71.44C525.514 70.096 526.682 69.056 528.154 68.32C529.658 67.584 531.306 67.216 533.098 67.216ZM549.353 80.752C549.353 78.064 549.897 75.712 550.985 73.696C552.073 71.648 553.561 70.064 555.449 68.944C557.369 67.824 559.497 67.264 561.833 67.264C564.137 67.264 566.137 67.76 567.833 68.752C569.529 69.744 570.793 70.992 571.625 72.496V67.696H576.041V94H571.625V89.104C570.761 90.64 569.465 91.92 567.737 92.944C566.041 93.936 564.057 94.432 561.785 94.432C559.449 94.432 557.337 93.856 555.449 92.704C553.561 91.552 552.073 89.936 550.985 87.856C549.897 85.776 549.353 83.408 549.353 80.752ZM571.625 80.8C571.625 78.816 571.225 77.088 570.425 75.616C569.625 74.144 568.537 73.024 567.161 72.256C565.817 71.456 564.329 71.056 562.697 71.056C561.065 71.056 559.577 71.44 558.233 72.208C556.889 72.976 555.817 74.096 555.017 75.568C554.217 77.04 553.817 78.768 553.817 80.752C553.817 82.768 554.217 84.528 555.017 86.032C555.817 87.504 556.889 88.64 558.233 89.44C559.577 90.208 561.065 90.592 562.697 90.592C564.329 90.592 565.817 90.208 567.161 89.44C568.537 88.64 569.625 87.504 570.425 86.032C571.225 84.528 571.625 82.784 571.625 80.8ZM587.935 87.952L582.559 100.864H579.631L583.135 87.952H587.935ZM623.351 94L615.383 80.32H610.103V94H605.735V60.544H616.535C619.063 60.544 621.191 60.976 622.919 61.84C624.679 62.704 625.991 63.872 626.855 65.344C627.719 66.816 628.151 68.496 628.151 70.384C628.151 72.688 627.479 74.72 626.135 76.48C624.823 78.24 622.839 79.408 620.183 79.984L628.583 94H623.351ZM610.103 76.816H616.535C618.903 76.816 620.679 76.24 621.863 75.088C623.047 73.904 623.639 72.336 623.639 70.384C623.639 68.4 623.047 66.864 621.863 65.776C620.711 64.688 618.935 64.144 616.535 64.144H610.103V76.816ZM658.266 67.696V94H653.898V90.112C653.066 91.456 651.898 92.512 650.394 93.28C648.922 94.016 647.29 94.384 645.498 94.384C643.45 94.384 641.61 93.968 639.978 93.136C638.346 92.272 637.05 90.992 636.09 89.296C635.162 87.6 634.698 85.536 634.698 83.104V67.696H639.018V82.528C639.018 85.12 639.674 87.12 640.986 88.528C642.298 89.904 644.09 90.592 646.362 90.592C648.698 90.592 650.538 89.872 651.882 88.432C653.226 86.992 653.898 84.896 653.898 82.144V67.696H658.266ZM664.009 80.752C664.009 78.064 664.553 75.712 665.641 73.696C666.729 71.648 668.217 70.064 670.105 68.944C672.025 67.824 674.153 67.264 676.489 67.264C678.793 67.264 680.793 67.76 682.489 68.752C684.185 69.744 685.449 70.992 686.281 72.496V67.696H690.697V94H686.281V89.104C685.417 90.64 684.121 91.92 682.393 92.944C680.697 93.936 678.713 94.432 676.441 94.432C674.105 94.432 671.993 93.856 670.105 92.704C668.217 91.552 666.729 89.936 665.641 87.856C664.553 85.776 664.009 83.408 664.009 80.752ZM686.281 80.8C686.281 78.816 685.881 77.088 685.081 75.616C684.281 74.144 683.193 73.024 681.817 72.256C680.473 71.456 678.985 71.056 677.353 71.056C675.721 71.056 674.233 71.44 672.889 72.208C671.545 72.976 670.473 74.096 669.673 75.568C668.873 77.04 668.473 78.768 668.473 80.752C668.473 82.768 668.873 84.528 669.673 86.032C670.473 87.504 671.545 88.64 672.889 89.44C674.233 90.208 675.721 90.592 677.353 90.592C678.985 90.592 680.473 90.208 681.817 89.44C683.193 88.64 684.281 87.504 685.081 86.032C685.881 84.528 686.281 82.784 686.281 80.8ZM728.492 94L720.524 80.32H715.244V94H710.876V60.544H721.676C724.204 60.544 726.332 60.976 728.06 61.84C729.82 62.704 731.132 63.872 731.996 65.344C732.86 66.816 733.292 68.496 733.292 70.384C733.292 72.688 732.62 74.72 731.276 76.48C729.964 78.24 727.98 79.408 725.324 79.984L733.724 94H728.492ZM715.244 76.816H721.676C724.044 76.816 725.82 76.24 727.004 75.088C728.188 73.904 728.78 72.336 728.78 70.384C728.78 68.4 728.188 66.864 727.004 65.776C725.852 64.688 724.076 64.144 721.676 64.144H715.244V76.816ZM751.551 94.432C749.087 94.432 746.847 93.872 744.831 92.752C742.847 91.632 741.279 90.048 740.127 88C739.007 85.92 738.447 83.52 738.447 80.8C738.447 78.112 739.023 75.744 740.175 73.696C741.359 71.616 742.959 70.032 744.975 68.944C746.991 67.824 749.247 67.264 751.743 67.264C754.239 67.264 756.495 67.824 758.511 68.944C760.527 70.032 762.111 71.6 763.263 73.648C764.447 75.696 765.039 78.08 765.039 80.8C765.039 83.52 764.431 85.92 763.215 88C762.031 90.048 760.415 91.632 758.367 92.752C756.319 93.872 754.047 94.432 751.551 94.432ZM751.551 90.592C753.119 90.592 754.591 90.224 755.967 89.488C757.343 88.752 758.447 87.648 759.279 86.176C760.143 84.704 760.575 82.912 760.575 80.8C760.575 78.688 760.159 76.896 759.327 75.424C758.495 73.952 757.407 72.864 756.063 72.16C754.719 71.424 753.263 71.056 751.695 71.056C750.095 71.056 748.623 71.424 747.279 72.16C745.967 72.864 744.911 73.952 744.111 75.424C743.311 76.896 742.911 78.688 742.911 80.8C742.911 82.944 743.295 84.752 744.063 86.224C744.863 87.696 745.919 88.8 747.231 89.536C748.543 90.24 749.983 90.592 751.551 90.592ZM802.414 67.216C804.462 67.216 806.286 67.648 807.886 68.512C809.486 69.344 810.75 70.608 811.678 72.304C812.606 74 813.07 76.064 813.07 78.496V94H808.75V79.12C808.75 76.496 808.094 74.496 806.782 73.12C805.502 71.712 803.758 71.008 801.55 71.008C799.278 71.008 797.47 71.744 796.126 73.216C794.782 74.656 794.11 76.752 794.11 79.504V94H789.79V79.12C789.79 76.496 789.134 74.496 787.822 73.12C786.542 71.712 784.798 71.008 782.59 71.008C780.318 71.008 778.51 71.744 777.166 73.216C775.822 74.656 775.15 76.752 775.15 79.504V94H770.782V67.696H775.15V71.488C776.014 70.112 777.166 69.056 778.606 68.32C780.078 67.584 781.694 67.216 783.454 67.216C785.662 67.216 787.614 67.712 789.31 68.704C791.006 69.696 792.27 71.152 793.102 73.072C793.838 71.216 795.054 69.776 796.75 68.752C798.446 67.728 800.334 67.216 802.414 67.216ZM818.603 80.752C818.603 78.064 819.147 75.712 820.235 73.696C821.323 71.648 822.811 70.064 824.699 68.944C826.619 67.824 828.747 67.264 831.083 67.264C833.387 67.264 835.387 67.76 837.083 68.752C838.779 69.744 840.043 70.992 840.875 72.496V67.696H845.291V94H840.875V89.104C840.011 90.64 838.715 91.92 836.987 92.944C835.291 93.936 833.307 94.432 831.035 94.432C828.699 94.432 826.587 93.856 824.699 92.704C822.811 91.552 821.323 89.936 820.235 87.856C819.147 85.776 818.603 83.408 818.603 80.752ZM840.875 80.8C840.875 78.816 840.475 77.088 839.675 75.616C838.875 74.144 837.787 73.024 836.411 72.256C835.067 71.456 833.579 71.056 831.947 71.056C830.315 71.056 828.827 71.44 827.483 72.208C826.139 72.976 825.067 74.096 824.267 75.568C823.467 77.04 823.067 78.768 823.067 80.752C823.067 82.768 823.467 84.528 824.267 86.032C825.067 87.504 826.139 88.64 827.483 89.44C828.827 90.208 830.315 90.592 831.947 90.592C833.579 90.592 835.067 90.208 836.411 89.44C837.787 88.64 838.875 87.504 839.675 86.032C840.475 84.528 840.875 82.784 840.875 80.8ZM896.506 74.56V78.256H877.354V74.56H896.506ZM956.602 94H952.234L934.666 67.36V94H930.298V60.496H934.666L952.234 87.088V60.496H956.602V94ZM961.936 68.656C961.936 66.928 962.32 65.408 963.088 64.096C963.856 62.784 964.912 61.776 966.256 61.072C967.632 60.336 969.152 59.968 970.816 59.968C972.512 59.968 974.032 60.336 975.376 61.072C976.72 61.776 977.776 62.784 978.544 64.096C979.312 65.408 979.696 66.928 979.696 68.656C979.696 70.352 979.296 71.872 978.496 73.216C977.728 74.528 976.656 75.552 975.28 76.288C973.936 77.024 972.432 77.392 970.768 77.392C969.072 77.392 967.552 77.024 966.208 76.288C964.896 75.552 963.856 74.528 963.088 73.216C962.32 71.904 961.936 70.384 961.936 68.656ZM976.144 68.704C976.144 66.816 975.616 65.344 974.56 64.288C973.536 63.232 972.288 62.704 970.816 62.704C969.312 62.704 968.048 63.232 967.024 64.288C966.032 65.344 965.536 66.816 965.536 68.704C965.536 70.56 966.032 72.016 967.024 73.072C968.016 74.096 969.264 74.608 970.768 74.608C972.24 74.608 973.504 74.08 974.56 73.024C975.616 71.968 976.144 70.528 976.144 68.704ZM983.082 63.28V59.296H992.106V94H987.69V63.28H983.082ZM999.081 90.496C1003.14 87.232 1006.33 84.56 1008.63 82.48C1010.94 80.368 1012.87 78.176 1014.44 75.904C1016.04 73.6 1016.84 71.344 1016.84 69.136C1016.84 67.056 1016.33 65.424 1015.3 64.24C1014.31 63.024 1012.7 62.416 1010.46 62.416C1008.28 62.416 1006.58 63.104 1005.37 64.48C1004.18 65.824 1003.54 67.632 1003.45 69.904H999.225C999.353 66.32 1000.44 63.552 1002.49 61.6C1004.54 59.648 1007.18 58.672 1010.41 58.672C1013.7 58.672 1016.31 59.584 1018.23 61.408C1020.18 63.232 1021.16 65.744 1021.16 68.944C1021.16 71.6 1020.36 74.192 1018.76 76.72C1017.19 79.216 1015.4 81.424 1013.38 83.344C1011.37 85.232 1008.79 87.44 1005.66 89.968H1022.17V93.616H999.081V90.496ZM1027.12 68.032C1027.35 65.088 1028.48 62.784 1030.53 61.12C1032.58 59.456 1035.23 58.624 1038.5 58.624C1040.67 58.624 1042.55 59.024 1044.11 59.824C1045.71 60.592 1046.91 61.648 1047.71 62.992C1048.55 64.336 1048.96 65.856 1048.96 67.552C1048.96 69.536 1048.39 71.248 1047.23 72.688C1046.11 74.128 1044.64 75.056 1042.82 75.472V75.712C1044.9 76.224 1046.55 77.232 1047.76 78.736C1048.98 80.24 1049.59 82.208 1049.59 84.64C1049.59 86.464 1049.17 88.112 1048.34 89.584C1047.51 91.024 1046.26 92.16 1044.59 92.992C1042.93 93.824 1040.93 94.24 1038.59 94.24C1035.2 94.24 1032.42 93.36 1030.24 91.6C1028.07 89.808 1026.85 87.28 1026.59 84.016H1030.82C1031.04 85.936 1031.83 87.504 1033.17 88.72C1034.51 89.936 1036.31 90.544 1038.55 90.544C1040.79 90.544 1042.48 89.968 1043.63 88.816C1044.82 87.632 1045.41 86.112 1045.41 84.256C1045.41 81.856 1044.61 80.128 1043.01 79.072C1041.41 78.016 1038.99 77.488 1035.76 77.488H1034.66V73.84H1035.81C1038.75 73.808 1040.98 73.328 1042.48 72.4C1043.99 71.44 1044.74 69.968 1044.74 67.984C1044.74 66.288 1044.18 64.928 1043.06 63.904C1041.97 62.88 1040.4 62.368 1038.35 62.368C1036.37 62.368 1034.77 62.88 1033.55 63.904C1032.34 64.928 1031.62 66.304 1031.39 68.032H1027.12Z"/>
</mask>
<path d="M304.836 60.544L292.212 94H287.172L274.548 60.544H279.204L289.716 89.392L300.228 60.544H304.836ZM311.882 63.424C311.05 63.424 310.346 63.136 309.77 62.56C309.194 61.984 308.906 61.28 308.906 60.448C308.906 59.616 309.194 58.912 309.77 58.336C310.346 57.76 311.05 57.472 311.882 57.472C312.682 57.472 313.354 57.76 313.898 58.336C314.474 58.912 314.762 59.616 314.762 60.448C314.762 61.28 314.474 61.984 313.898 62.56C313.354 63.136 312.682 63.424 311.882 63.424ZM313.994 67.696V94H309.626V67.696H313.994ZM325.806 58.48V94H321.438V58.48H325.806ZM331.619 80.752C331.619 78.064 332.163 75.712 333.251 73.696C334.339 71.648 335.827 70.064 337.715 68.944C339.635 67.824 341.763 67.264 344.099 67.264C346.403 67.264 348.403 67.76 350.099 68.752C351.795 69.744 353.059 70.992 353.891 72.496V67.696H358.307V94H353.891V89.104C353.027 90.64 351.731 91.92 350.003 92.944C348.307 93.936 346.323 94.432 344.051 94.432C341.715 94.432 339.603 93.856 337.715 92.704C335.827 91.552 334.339 89.936 333.251 87.856C332.163 85.776 331.619 83.408 331.619 80.752ZM353.891 80.8C353.891 78.816 353.491 77.088 352.691 75.616C351.891 74.144 350.803 73.024 349.427 72.256C348.083 71.456 346.595 71.056 344.963 71.056C343.331 71.056 341.843 71.44 340.499 72.208C339.155 72.976 338.083 74.096 337.283 75.568C336.483 77.04 336.083 78.768 336.083 80.752C336.083 82.768 336.483 84.528 337.283 86.032C338.083 87.504 339.155 88.64 340.499 89.44C341.843 90.208 343.331 90.592 344.963 90.592C346.595 90.592 348.083 90.208 349.427 89.44C350.803 88.64 351.891 87.504 352.691 86.032C353.491 84.528 353.891 82.784 353.891 80.8ZM396.101 94L388.133 80.32H382.853V94H378.485V60.544H389.285C391.813 60.544 393.941 60.976 395.669 61.84C397.429 62.704 398.741 63.872 399.605 65.344C400.469 66.816 400.901 68.496 400.901 70.384C400.901 72.688 400.229 74.72 398.885 76.48C397.573 78.24 395.589 79.408 392.933 79.984L401.333 94H396.101ZM382.853 76.816H389.285C391.653 76.816 393.429 76.24 394.613 75.088C395.797 73.904 396.389 72.336 396.389 70.384C396.389 68.4 395.797 66.864 394.613 65.776C393.461 64.688 391.685 64.144 389.285 64.144H382.853V76.816ZM419.16 94.432C416.696 94.432 414.456 93.872 412.44 92.752C410.456 91.632 408.888 90.048 407.736 88C406.616 85.92 406.056 83.52 406.056 80.8C406.056 78.112 406.632 75.744 407.784 73.696C408.968 71.616 410.568 70.032 412.584 68.944C414.6 67.824 416.856 67.264 419.352 67.264C421.848 67.264 424.104 67.824 426.12 68.944C428.136 70.032 429.72 71.6 430.872 73.648C432.056 75.696 432.648 78.08 432.648 80.8C432.648 83.52 432.04 85.92 430.824 88C429.64 90.048 428.024 91.632 425.976 92.752C423.928 93.872 421.656 94.432 419.16 94.432ZM419.16 90.592C420.728 90.592 422.2 90.224 423.576 89.488C424.952 88.752 426.056 87.648 426.888 86.176C427.752 84.704 428.184 82.912 428.184 80.8C428.184 78.688 427.768 76.896 426.936 75.424C426.104 73.952 425.016 72.864 423.672 72.16C422.328 71.424 420.872 71.056 419.304 71.056C417.704 71.056 416.232 71.424 414.888 72.16C413.576 72.864 412.52 73.952 411.72 75.424C410.92 76.896 410.52 78.688 410.52 80.8C410.52 82.944 410.904 84.752 411.672 86.224C412.472 87.696 413.528 88.8 414.84 89.536C416.152 90.24 417.592 90.592 419.16 90.592ZM470.023 67.216C472.071 67.216 473.895 67.648 475.495 68.512C477.095 69.344 478.359 70.608 479.287 72.304C480.215 74 480.679 76.064 480.679 78.496V94H476.359V79.12C476.359 76.496 475.703 74.496 474.391 73.12C473.111 71.712 471.367 71.008 469.159 71.008C466.887 71.008 465.079 71.744 463.735 73.216C462.391 74.656 461.719 76.752 461.719 79.504V94H457.399V79.12C457.399 76.496 456.743 74.496 455.431 73.12C454.151 71.712 452.407 71.008 450.199 71.008C447.927 71.008 446.119 71.744 444.775 73.216C443.431 74.656 442.759 76.752 442.759 79.504V94H438.391V67.696H442.759V71.488C443.623 70.112 444.775 69.056 446.215 68.32C447.687 67.584 449.303 67.216 451.063 67.216C453.271 67.216 455.223 67.712 456.919 68.704C458.615 69.696 459.879 71.152 460.711 73.072C461.447 71.216 462.663 69.776 464.359 68.752C466.055 67.728 467.943 67.216 470.023 67.216ZM486.212 80.752C486.212 78.064 486.756 75.712 487.844 73.696C488.932 71.648 490.42 70.064 492.308 68.944C494.228 67.824 496.356 67.264 498.692 67.264C500.996 67.264 502.996 67.76 504.692 68.752C506.388 69.744 507.652 70.992 508.484 72.496V67.696H512.9V94H508.484V89.104C507.62 90.64 506.324 91.92 504.596 92.944C502.9 93.936 500.916 94.432 498.644 94.432C496.308 94.432 494.196 93.856 492.308 92.704C490.42 91.552 488.932 89.936 487.844 87.856C486.756 85.776 486.212 83.408 486.212 80.752ZM508.484 80.8C508.484 78.816 508.084 77.088 507.284 75.616C506.484 74.144 505.396 73.024 504.02 72.256C502.676 71.456 501.188 71.056 499.556 71.056C497.924 71.056 496.436 71.44 495.092 72.208C493.748 72.976 492.676 74.096 491.876 75.568C491.076 77.04 490.676 78.768 490.676 80.752C490.676 82.768 491.076 84.528 491.876 86.032C492.676 87.504 493.748 88.64 495.092 89.44C496.436 90.208 497.924 90.592 499.556 90.592C501.188 90.592 502.676 90.208 504.02 89.44C505.396 88.64 506.484 87.504 507.284 86.032C508.084 84.528 508.484 82.784 508.484 80.8ZM533.098 67.216C536.298 67.216 538.89 68.192 540.874 70.144C542.858 72.064 543.85 74.848 543.85 78.496V94H539.53V79.12C539.53 76.496 538.874 74.496 537.562 73.12C536.25 71.712 534.458 71.008 532.186 71.008C529.882 71.008 528.042 71.728 526.666 73.168C525.322 74.608 524.65 76.704 524.65 79.456V94H520.282V67.696H524.65V71.44C525.514 70.096 526.682 69.056 528.154 68.32C529.658 67.584 531.306 67.216 533.098 67.216ZM549.353 80.752C549.353 78.064 549.897 75.712 550.985 73.696C552.073 71.648 553.561 70.064 555.449 68.944C557.369 67.824 559.497 67.264 561.833 67.264C564.137 67.264 566.137 67.76 567.833 68.752C569.529 69.744 570.793 70.992 571.625 72.496V67.696H576.041V94H571.625V89.104C570.761 90.64 569.465 91.92 567.737 92.944C566.041 93.936 564.057 94.432 561.785 94.432C559.449 94.432 557.337 93.856 555.449 92.704C553.561 91.552 552.073 89.936 550.985 87.856C549.897 85.776 549.353 83.408 549.353 80.752ZM571.625 80.8C571.625 78.816 571.225 77.088 570.425 75.616C569.625 74.144 568.537 73.024 567.161 72.256C565.817 71.456 564.329 71.056 562.697 71.056C561.065 71.056 559.577 71.44 558.233 72.208C556.889 72.976 555.817 74.096 555.017 75.568C554.217 77.04 553.817 78.768 553.817 80.752C553.817 82.768 554.217 84.528 555.017 86.032C555.817 87.504 556.889 88.64 558.233 89.44C559.577 90.208 561.065 90.592 562.697 90.592C564.329 90.592 565.817 90.208 567.161 89.44C568.537 88.64 569.625 87.504 570.425 86.032C571.225 84.528 571.625 82.784 571.625 80.8ZM587.935 87.952L582.559 100.864H579.631L583.135 87.952H587.935ZM623.351 94L615.383 80.32H610.103V94H605.735V60.544H616.535C619.063 60.544 621.191 60.976 622.919 61.84C624.679 62.704 625.991 63.872 626.855 65.344C627.719 66.816 628.151 68.496 628.151 70.384C628.151 72.688 627.479 74.72 626.135 76.48C624.823 78.24 622.839 79.408 620.183 79.984L628.583 94H623.351ZM610.103 76.816H616.535C618.903 76.816 620.679 76.24 621.863 75.088C623.047 73.904 623.639 72.336 623.639 70.384C623.639 68.4 623.047 66.864 621.863 65.776C620.711 64.688 618.935 64.144 616.535 64.144H610.103V76.816ZM658.266 67.696V94H653.898V90.112C653.066 91.456 651.898 92.512 650.394 93.28C648.922 94.016 647.29 94.384 645.498 94.384C643.45 94.384 641.61 93.968 639.978 93.136C638.346 92.272 637.05 90.992 636.09 89.296C635.162 87.6 634.698 85.536 634.698 83.104V67.696H639.018V82.528C639.018 85.12 639.674 87.12 640.986 88.528C642.298 89.904 644.09 90.592 646.362 90.592C648.698 90.592 650.538 89.872 651.882 88.432C653.226 86.992 653.898 84.896 653.898 82.144V67.696H658.266ZM664.009 80.752C664.009 78.064 664.553 75.712 665.641 73.696C666.729 71.648 668.217 70.064 670.105 68.944C672.025 67.824 674.153 67.264 676.489 67.264C678.793 67.264 680.793 67.76 682.489 68.752C684.185 69.744 685.449 70.992 686.281 72.496V67.696H690.697V94H686.281V89.104C685.417 90.64 684.121 91.92 682.393 92.944C680.697 93.936 678.713 94.432 676.441 94.432C674.105 94.432 671.993 93.856 670.105 92.704C668.217 91.552 666.729 89.936 665.641 87.856C664.553 85.776 664.009 83.408 664.009 80.752ZM686.281 80.8C686.281 78.816 685.881 77.088 685.081 75.616C684.281 74.144 683.193 73.024 681.817 72.256C680.473 71.456 678.985 71.056 677.353 71.056C675.721 71.056 674.233 71.44 672.889 72.208C671.545 72.976 670.473 74.096 669.673 75.568C668.873 77.04 668.473 78.768 668.473 80.752C668.473 82.768 668.873 84.528 669.673 86.032C670.473 87.504 671.545 88.64 672.889 89.44C674.233 90.208 675.721 90.592 677.353 90.592C678.985 90.592 680.473 90.208 681.817 89.44C683.193 88.64 684.281 87.504 685.081 86.032C685.881 84.528 686.281 82.784 686.281 80.8ZM728.492 94L720.524 80.32H715.244V94H710.876V60.544H721.676C724.204 60.544 726.332 60.976 728.06 61.84C729.82 62.704 731.132 63.872 731.996 65.344C732.86 66.816 733.292 68.496 733.292 70.384C733.292 72.688 732.62 74.72 731.276 76.48C729.964 78.24 727.98 79.408 725.324 79.984L733.724 94H728.492ZM715.244 76.816H721.676C724.044 76.816 725.82 76.24 727.004 75.088C728.188 73.904 728.78 72.336 728.78 70.384C728.78 68.4 728.188 66.864 727.004 65.776C725.852 64.688 724.076 64.144 721.676 64.144H715.244V76.816ZM751.551 94.432C749.087 94.432 746.847 93.872 744.831 92.752C742.847 91.632 741.279 90.048 740.127 88C739.007 85.92 738.447 83.52 738.447 80.8C738.447 78.112 739.023 75.744 740.175 73.696C741.359 71.616 742.959 70.032 744.975 68.944C746.991 67.824 749.247 67.264 751.743 67.264C754.239 67.264 756.495 67.824 758.511 68.944C760.527 70.032 762.111 71.6 763.263 73.648C764.447 75.696 765.039 78.08 765.039 80.8C765.039 83.52 764.431 85.92 763.215 88C762.031 90.048 760.415 91.632 758.367 92.752C756.319 93.872 754.047 94.432 751.551 94.432ZM751.551 90.592C753.119 90.592 754.591 90.224 755.967 89.488C757.343 88.752 758.447 87.648 759.279 86.176C760.143 84.704 760.575 82.912 760.575 80.8C760.575 78.688 760.159 76.896 759.327 75.424C758.495 73.952 757.407 72.864 756.063 72.16C754.719 71.424 753.263 71.056 751.695 71.056C750.095 71.056 748.623 71.424 747.279 72.16C745.967 72.864 744.911 73.952 744.111 75.424C743.311 76.896 742.911 78.688 742.911 80.8C742.911 82.944 743.295 84.752 744.063 86.224C744.863 87.696 745.919 88.8 747.231 89.536C748.543 90.24 749.983 90.592 751.551 90.592ZM802.414 67.216C804.462 67.216 806.286 67.648 807.886 68.512C809.486 69.344 810.75 70.608 811.678 72.304C812.606 74 813.07 76.064 813.07 78.496V94H808.75V79.12C808.75 76.496 808.094 74.496 806.782 73.12C805.502 71.712 803.758 71.008 801.55 71.008C799.278 71.008 797.47 71.744 796.126 73.216C794.782 74.656 794.11 76.752 794.11 79.504V94H789.79V79.12C789.79 76.496 789.134 74.496 787.822 73.12C786.542 71.712 784.798 71.008 782.59 71.008C780.318 71.008 778.51 71.744 777.166 73.216C775.822 74.656 775.15 76.752 775.15 79.504V94H770.782V67.696H775.15V71.488C776.014 70.112 777.166 69.056 778.606 68.32C780.078 67.584 781.694 67.216 783.454 67.216C785.662 67.216 787.614 67.712 789.31 68.704C791.006 69.696 792.27 71.152 793.102 73.072C793.838 71.216 795.054 69.776 796.75 68.752C798.446 67.728 800.334 67.216 802.414 67.216ZM818.603 80.752C818.603 78.064 819.147 75.712 820.235 73.696C821.323 71.648 822.811 70.064 824.699 68.944C826.619 67.824 828.747 67.264 831.083 67.264C833.387 67.264 835.387 67.76 837.083 68.752C838.779 69.744 840.043 70.992 840.875 72.496V67.696H845.291V94H840.875V89.104C840.011 90.64 838.715 91.92 836.987 92.944C835.291 93.936 833.307 94.432 831.035 94.432C828.699 94.432 826.587 93.856 824.699 92.704C822.811 91.552 821.323 89.936 820.235 87.856C819.147 85.776 818.603 83.408 818.603 80.752ZM840.875 80.8C840.875 78.816 840.475 77.088 839.675 75.616C838.875 74.144 837.787 73.024 836.411 72.256C835.067 71.456 833.579 71.056 831.947 71.056C830.315 71.056 828.827 71.44 827.483 72.208C826.139 72.976 825.067 74.096 824.267 75.568C823.467 77.04 823.067 78.768 823.067 80.752C823.067 82.768 823.467 84.528 824.267 86.032C825.067 87.504 826.139 88.64 827.483 89.44C828.827 90.208 830.315 90.592 831.947 90.592C833.579 90.592 835.067 90.208 836.411 89.44C837.787 88.64 838.875 87.504 839.675 86.032C840.475 84.528 840.875 82.784 840.875 80.8ZM896.506 74.56V78.256H877.354V74.56H896.506ZM956.602 94H952.234L934.666 67.36V94H930.298V60.496H934.666L952.234 87.088V60.496H956.602V94ZM961.936 68.656C961.936 66.928 962.32 65.408 963.088 64.096C963.856 62.784 964.912 61.776 966.256 61.072C967.632 60.336 969.152 59.968 970.816 59.968C972.512 59.968 974.032 60.336 975.376 61.072C976.72 61.776 977.776 62.784 978.544 64.096C979.312 65.408 979.696 66.928 979.696 68.656C979.696 70.352 979.296 71.872 978.496 73.216C977.728 74.528 976.656 75.552 975.28 76.288C973.936 77.024 972.432 77.392 970.768 77.392C969.072 77.392 967.552 77.024 966.208 76.288C964.896 75.552 963.856 74.528 963.088 73.216C962.32 71.904 961.936 70.384 961.936 68.656ZM976.144 68.704C976.144 66.816 975.616 65.344 974.56 64.288C973.536 63.232 972.288 62.704 970.816 62.704C969.312 62.704 968.048 63.232 967.024 64.288C966.032 65.344 965.536 66.816 965.536 68.704C965.536 70.56 966.032 72.016 967.024 73.072C968.016 74.096 969.264 74.608 970.768 74.608C972.24 74.608 973.504 74.08 974.56 73.024C975.616 71.968 976.144 70.528 976.144 68.704ZM983.082 63.28V59.296H992.106V94H987.69V63.28H983.082ZM999.081 90.496C1003.14 87.232 1006.33 84.56 1008.63 82.48C1010.94 80.368 1012.87 78.176 1014.44 75.904C1016.04 73.6 1016.84 71.344 1016.84 69.136C1016.84 67.056 1016.33 65.424 1015.3 64.24C1014.31 63.024 1012.7 62.416 1010.46 62.416C1008.28 62.416 1006.58 63.104 1005.37 64.48C1004.18 65.824 1003.54 67.632 1003.45 69.904H999.225C999.353 66.32 1000.44 63.552 1002.49 61.6C1004.54 59.648 1007.18 58.672 1010.41 58.672C1013.7 58.672 1016.31 59.584 1018.23 61.408C1020.18 63.232 1021.16 65.744 1021.16 68.944C1021.16 71.6 1020.36 74.192 1018.76 76.72C1017.19 79.216 1015.4 81.424 1013.38 83.344C1011.37 85.232 1008.79 87.44 1005.66 89.968H1022.17V93.616H999.081V90.496ZM1027.12 68.032C1027.35 65.088 1028.48 62.784 1030.53 61.12C1032.58 59.456 1035.23 58.624 1038.5 58.624C1040.67 58.624 1042.55 59.024 1044.11 59.824C1045.71 60.592 1046.91 61.648 1047.71 62.992C1048.55 64.336 1048.96 65.856 1048.96 67.552C1048.96 69.536 1048.39 71.248 1047.23 72.688C1046.11 74.128 1044.64 75.056 1042.82 75.472V75.712C1044.9 76.224 1046.55 77.232 1047.76 78.736C1048.98 80.24 1049.59 82.208 1049.59 84.64C1049.59 86.464 1049.17 88.112 1048.34 89.584C1047.51 91.024 1046.26 92.16 1044.59 92.992C1042.93 93.824 1040.93 94.24 1038.59 94.24C1035.2 94.24 1032.42 93.36 1030.24 91.6C1028.07 89.808 1026.85 87.28 1026.59 84.016H1030.82C1031.04 85.936 1031.83 87.504 1033.17 88.72C1034.51 89.936 1036.31 90.544 1038.55 90.544C1040.79 90.544 1042.48 89.968 1043.63 88.816C1044.82 87.632 1045.41 86.112 1045.41 84.256C1045.41 81.856 1044.61 80.128 1043.01 79.072C1041.41 78.016 1038.99 77.488 1035.76 77.488H1034.66V73.84H1035.81C1038.75 73.808 1040.98 73.328 1042.48 72.4C1043.99 71.44 1044.74 69.968 1044.74 67.984C1044.74 66.288 1044.18 64.928 1043.06 63.904C1041.97 62.88 1040.4 62.368 1038.35 62.368C1036.37 62.368 1034.77 62.88 1033.55 63.904C1032.34 64.928 1031.62 66.304 1031.39 68.032H1027.12Z" fill="#390000"/>
<path d="M304.836 60.544L305.772 60.897L306.282 59.544H304.836V60.544ZM292.212 94V95H292.904L293.148 94.353L292.212 94ZM287.172 94L286.237 94.353L286.481 95H287.172V94ZM274.548 60.544V59.544H273.102L273.613 60.897L274.548 60.544ZM279.204 60.544L280.144 60.2016L279.904 59.544H279.204V60.544ZM289.716 89.392L288.777 89.7344L289.716 92.3128L290.656 89.7344L289.716 89.392ZM300.228 60.544V59.544H299.528L299.289 60.2016L300.228 60.544ZM303.901 60.191L291.277 93.647L293.148 94.353L305.772 60.897L303.901 60.191ZM292.212 93H287.172V95H292.212V93ZM288.108 93.647L275.484 60.191L273.613 60.897L286.237 94.353L288.108 93.647ZM274.548 61.544H279.204V59.544H274.548V61.544ZM278.265 60.8864L288.777 89.7344L290.656 89.0496L280.144 60.2016L278.265 60.8864ZM290.656 89.7344L301.168 60.8864L299.289 60.2016L288.777 89.0496L290.656 89.7344ZM300.228 61.544H304.836V59.544H300.228V61.544ZM309.77 62.56L310.477 61.8529L309.77 62.56ZM309.77 58.336L310.477 59.0431L309.77 58.336ZM313.898 58.336L313.171 59.0226L313.18 59.033L313.191 59.0431L313.898 58.336ZM313.898 62.56L313.191 61.8529L313.18 61.863L313.171 61.8734L313.898 62.56ZM313.994 67.696H314.994V66.696H313.994V67.696ZM313.994 94V95H314.994V94H313.994ZM309.626 94H308.626V95H309.626V94ZM309.626 67.696V66.696H308.626V67.696H309.626ZM311.882 62.424C311.309 62.424 310.861 62.2369 310.477 61.8529L309.063 63.2671C309.831 64.0351 310.791 64.424 311.882 64.424V62.424ZM310.477 61.8529C310.093 61.4689 309.906 61.0211 309.906 60.448H307.906C307.906 61.5389 308.295 62.4991 309.063 63.2671L310.477 61.8529ZM309.906 60.448C309.906 59.8749 310.093 59.4271 310.477 59.0431L309.063 57.6289C308.295 58.3969 307.906 59.3571 307.906 60.448H309.906ZM310.477 59.0431C310.861 58.6591 311.309 58.472 311.882 58.472V56.472C310.791 56.472 309.831 56.8609 309.063 57.6289L310.477 59.0431ZM311.882 58.472C312.41 58.472 312.818 58.6488 313.171 59.0226L314.625 57.6494C313.89 56.8712 312.954 56.472 311.882 56.472V58.472ZM313.191 59.0431C313.575 59.4271 313.762 59.8749 313.762 60.448H315.762C315.762 59.3571 315.373 58.3969 314.605 57.6289L313.191 59.0431ZM313.762 60.448C313.762 61.0211 313.575 61.4689 313.191 61.8529L314.605 63.2671C315.373 62.4991 315.762 61.5389 315.762 60.448H313.762ZM313.171 61.8734C312.818 62.2472 312.41 62.424 311.882 62.424V64.424C312.954 64.424 313.89 64.0248 314.625 63.2466L313.171 61.8734ZM312.994 67.696V94H314.994V67.696H312.994ZM313.994 93H309.626V95H313.994V93ZM310.626 94V67.696H308.626V94H310.626ZM309.626 68.696H313.994V66.696H309.626V68.696ZM325.806 58.48H326.806V57.48H325.806V58.48ZM325.806 94V95H326.806V94H325.806ZM321.438 94H320.438V95H321.438V94ZM321.438 58.48V57.48H320.438V58.48H321.438ZM324.806 58.48V94H326.806V58.48H324.806ZM325.806 93H321.438V95H325.806V93ZM322.438 94V58.48H320.438V94H322.438ZM321.438 59.48H325.806V57.48H321.438V59.48ZM333.251 73.696L334.131 74.1709L334.134 74.1652L333.251 73.696ZM337.715 68.944L337.211 68.0802L337.204 68.0839L337.715 68.944ZM350.099 68.752L349.594 69.6152L350.099 68.752ZM353.891 72.496L353.016 72.9801L354.891 72.496H353.891ZM353.891 67.696V66.696H352.891V67.696H353.891ZM358.307 67.696H359.307V66.696H358.307V67.696ZM358.307 94V95H359.307V94H358.307ZM353.891 94H352.891V95H353.891V94ZM353.891 89.104H354.891V85.2865L353.019 88.6137L353.891 89.104ZM350.003 92.944L350.508 93.8072L350.512 93.8043L350.003 92.944ZM337.715 92.704L337.194 93.5576L337.715 92.704ZM333.251 87.856L334.137 87.3925L333.251 87.856ZM349.427 72.256L348.915 73.1153L348.927 73.1224L348.939 73.1292L349.427 72.256ZM340.499 72.208L340.003 71.3398L340.499 72.208ZM337.283 75.568L338.161 76.0455L337.283 75.568ZM337.283 86.032L336.4 86.5016L336.404 86.5095L337.283 86.032ZM340.499 89.44L339.987 90.2993L339.995 90.3038L340.003 90.3082L340.499 89.44ZM349.427 89.44L349.923 90.3083L349.929 90.3045L349.427 89.44ZM352.691 86.032L353.569 86.5095L353.574 86.5016L352.691 86.032ZM332.619 80.752C332.619 78.201 333.134 76.0176 334.131 74.1709L332.371 73.2211C331.191 75.4064 330.619 77.927 330.619 80.752H332.619ZM334.134 74.1652C335.141 72.2697 336.504 70.8251 338.225 69.8041L337.204 68.0839C335.15 69.3029 333.537 71.0263 332.368 73.2268L334.134 74.1652ZM338.219 69.8078C339.978 68.7816 341.93 68.264 344.099 68.264V66.264C341.595 66.264 339.292 66.8664 337.211 68.0802L338.219 69.8078ZM344.099 68.264C346.256 68.264 348.076 68.7272 349.594 69.6152L350.604 67.8888C348.73 66.7928 346.549 66.264 344.099 66.264V68.264ZM349.594 69.6152C351.157 70.5296 352.283 71.6549 353.016 72.9801L354.766 72.0119C353.835 70.3291 352.432 68.9584 350.604 67.8888L349.594 69.6152ZM354.891 72.496V67.696H352.891V72.496H354.891ZM353.891 68.696H358.307V66.696H353.891V68.696ZM357.307 67.696V94H359.307V67.696H357.307ZM358.307 93H353.891V95H358.307V93ZM354.891 94V89.104H352.891V94H354.891ZM353.019 88.6137C352.253 89.9764 351.091 91.1365 349.493 92.0837L350.512 93.8043C352.37 92.7035 353.801 91.3036 354.762 89.5943L353.019 88.6137ZM349.498 92.0808C347.978 92.97 346.173 93.432 344.051 93.432V95.432C346.472 95.432 348.636 94.902 350.508 93.8072L349.498 92.0808ZM344.051 93.432C341.888 93.432 339.958 92.9012 338.236 91.8504L337.194 93.5576C339.248 94.8108 341.542 95.432 344.051 95.432V93.432ZM338.236 91.8504C336.512 90.7987 335.146 89.322 334.137 87.3925L332.365 88.3195C333.531 90.55 335.141 92.3053 337.194 93.5576L338.236 91.8504ZM334.137 87.3925C333.133 85.4734 332.619 83.268 332.619 80.752H330.619C330.619 83.548 331.192 86.0786 332.365 88.3195L334.137 87.3925ZM354.891 80.8C354.891 78.6799 354.462 76.7819 353.569 75.1385L351.812 76.0935C352.519 77.3941 352.891 78.9521 352.891 80.8H354.891ZM353.569 75.1385C352.685 73.5112 351.466 72.2489 349.914 71.3828L348.939 73.1292C350.139 73.7991 351.096 74.7768 351.812 76.0935L353.569 75.1385ZM349.938 71.3967C348.433 70.5005 346.767 70.056 344.963 70.056V72.056C346.423 72.056 347.733 72.4115 348.915 73.1153L349.938 71.3967ZM344.963 70.056C343.166 70.056 341.506 70.4807 340.003 71.3398L340.995 73.0762C342.179 72.3993 343.495 72.056 344.963 72.056V70.056ZM340.003 71.3398C338.484 72.2075 337.285 73.4692 336.404 75.0905L338.161 76.0455C338.88 74.7228 339.825 73.7445 340.995 73.0762L340.003 71.3398ZM336.404 75.0905C335.511 76.7339 335.083 78.6319 335.083 80.752H337.083C337.083 78.9041 337.454 77.3461 338.161 76.0455L336.404 75.0905ZM335.083 80.752C335.083 82.9018 335.51 84.8287 336.4 86.5016L338.166 85.5624C337.455 84.2273 337.083 82.6342 337.083 80.752H335.083ZM336.404 86.5095C337.284 88.1278 338.478 89.4008 339.987 90.2993L341.01 88.5807C339.832 87.8792 338.882 86.8802 338.161 85.5545L336.404 86.5095ZM340.003 90.3082C341.506 91.1673 343.166 91.592 344.963 91.592V89.592C343.495 89.592 342.179 89.2487 340.995 88.5718L340.003 90.3082ZM344.963 91.592C346.759 91.592 348.419 91.1673 349.923 90.3082L348.931 88.5718C347.746 89.2487 346.43 89.592 344.963 89.592V91.592ZM349.929 90.3045C351.472 89.4075 352.687 88.1337 353.569 86.5095L351.812 85.5545C351.095 86.8743 350.133 87.8725 348.924 88.5755L349.929 90.3045ZM353.574 86.5016C354.462 84.8309 354.891 82.9207 354.891 80.8H352.891C352.891 82.6473 352.519 84.2251 351.808 85.5624L353.574 86.5016ZM396.101 94L395.237 94.5033L395.526 95H396.101V94ZM388.133 80.32L388.997 79.8167L388.708 79.32H388.133V80.32ZM382.853 80.32V79.32H381.853V80.32H382.853ZM382.853 94V95H383.853V94H382.853ZM378.485 94H377.485V95H378.485V94ZM378.485 60.544V59.544H377.485V60.544H378.485ZM395.669 61.84L395.222 62.7344L395.228 62.7377L395.669 61.84ZM398.885 76.48L398.09 75.873L398.083 75.8823L398.885 76.48ZM392.933 79.984L392.721 79.0067L391.359 79.3022L392.075 80.4981L392.933 79.984ZM401.333 94V95H403.098L402.191 93.4859L401.333 94ZM382.853 76.816H381.853V77.816H382.853V76.816ZM394.613 75.088L395.31 75.8048L395.32 75.7951L394.613 75.088ZM394.613 65.776L393.926 66.5031L393.936 66.5123L394.613 65.776ZM382.853 64.144V63.144H381.853V64.144H382.853ZM396.965 93.4967L388.997 79.8167L387.269 80.8233L395.237 94.5033L396.965 93.4967ZM388.133 79.32H382.853V81.32H388.133V79.32ZM381.853 80.32V94H383.853V80.32H381.853ZM382.853 93H378.485V95H382.853V93ZM379.485 94V60.544H377.485V94H379.485ZM378.485 61.544H389.285V59.544H378.485V61.544ZM389.285 61.544C391.704 61.544 393.669 61.9579 395.222 62.7344L396.116 60.9456C394.213 59.9941 391.922 59.544 389.285 59.544V61.544ZM395.228 62.7377C396.839 63.5285 397.992 64.5713 398.743 65.8502L400.467 64.8378C399.49 63.1727 398.019 61.8795 396.11 60.9423L395.228 62.7377ZM398.743 65.8502C399.507 67.1528 399.901 68.6546 399.901 70.384H401.901C401.901 68.3374 401.431 66.4792 400.467 64.8378L398.743 65.8502ZM399.901 70.384C399.901 72.4782 399.296 74.2948 398.09 75.8731L399.68 77.0869C401.163 75.1452 401.901 72.8978 401.901 70.384H399.901ZM398.083 75.8823C396.948 77.4057 395.199 78.4692 392.721 79.0067L393.145 80.9613C395.979 80.3468 398.198 79.0743 399.687 77.0777L398.083 75.8823ZM392.075 80.4981L400.475 94.5141L402.191 93.4859L393.791 79.4699L392.075 80.4981ZM401.333 93H396.101V95H401.333V93ZM382.853 77.816H389.285V75.816H382.853V77.816ZM389.285 77.816C391.8 77.816 393.872 77.2044 395.31 75.8047L393.916 74.3713C392.986 75.2756 391.506 75.816 389.285 75.816V77.816ZM395.32 75.7951C396.723 74.3925 397.389 72.5537 397.389 70.384H395.389C395.389 72.1183 394.871 73.4155 393.906 74.3809L395.32 75.7951ZM397.389 70.384C397.389 68.1905 396.726 66.3599 395.29 65.0397L393.936 66.5123C394.868 67.3681 395.389 68.6095 395.389 70.384H397.389ZM395.3 65.049C393.886 63.7139 391.812 63.144 389.285 63.144V65.144C391.558 65.144 393.036 65.6621 393.926 66.503L395.3 65.049ZM389.285 63.144H382.853V65.144H389.285V63.144ZM381.853 64.144V76.816H383.853V64.144H381.853ZM412.44 92.752L411.949 93.6228L411.955 93.6262L412.44 92.752ZM407.736 88L406.856 88.4741L406.86 88.4822L406.865 88.4903L407.736 88ZM407.784 73.696L406.915 73.2013L406.913 73.2057L407.784 73.696ZM412.584 68.944L413.059 69.8241L413.07 69.8182L412.584 68.944ZM426.12 68.944L425.635 69.8182L425.645 69.824L426.12 68.944ZM430.872 73.648L430.001 74.1383L430.006 74.1485L430.872 73.648ZM430.824 88L429.961 87.4953L429.958 87.4995L430.824 88ZM425.976 92.752L426.456 93.6294L425.976 92.752ZM426.888 86.176L426.026 85.6698L426.022 85.6768L426.018 85.6839L426.888 86.176ZM423.672 72.16L423.192 73.0371L423.2 73.0415L423.208 73.0458L423.672 72.16ZM414.888 72.16L415.361 73.0412L415.368 73.0371L414.888 72.16ZM411.72 75.424L412.599 75.9015L411.72 75.424ZM411.672 86.224L410.786 86.6866L410.79 86.6941L410.794 86.7015L411.672 86.224ZM414.84 89.536L414.351 90.4081L414.359 90.4127L414.367 90.4172L414.84 89.536ZM419.16 93.432C416.854 93.432 414.783 92.9097 412.926 91.8778L411.955 93.6262C414.129 94.8343 416.538 95.432 419.16 95.432V93.432ZM412.932 91.8812C411.112 90.8539 409.673 89.4038 408.608 87.5097L406.865 88.4903C408.103 90.6922 409.8 92.4101 411.949 93.6228L412.932 91.8812ZM408.617 87.5259C407.586 85.6123 407.056 83.3798 407.056 80.8H405.056C405.056 83.6602 405.646 86.2277 406.856 88.4741L408.617 87.5259ZM407.056 80.8C407.056 78.2587 407.599 76.0642 408.656 74.1863L406.913 73.2057C405.665 75.4238 405.056 77.9653 405.056 80.8H407.056ZM408.653 74.1907C409.749 72.2659 411.216 70.8189 413.059 69.824L412.109 68.064C409.921 69.245 408.187 70.9661 406.915 73.2013L408.653 74.1907ZM413.07 69.8182C414.925 68.7874 417.012 68.264 419.352 68.264V66.264C416.701 66.264 414.275 66.8606 412.099 68.0698L413.07 69.8182ZM419.352 68.264C421.693 68.264 423.779 68.7874 425.635 69.8182L426.606 68.0698C424.429 66.8606 422.004 66.264 419.352 66.264V68.264ZM425.645 69.824C427.49 70.8198 428.939 72.2506 430.001 74.1383L431.744 73.1577C430.502 70.9494 428.782 69.2442 426.595 68.064L425.645 69.824ZM430.006 74.1485C431.09 76.0228 431.648 78.229 431.648 80.8H433.648C433.648 77.931 433.022 75.3692 431.738 73.1475L430.006 74.1485ZM431.648 80.8C431.648 83.366 431.076 85.5874 429.961 87.4953L431.688 88.5047C433.004 86.2526 433.648 83.674 433.648 80.8H431.648ZM429.958 87.4995C428.865 89.3911 427.381 90.8438 425.496 91.8746L426.456 93.6294C428.667 92.4202 430.416 90.7049 431.69 88.5005L429.958 87.4995ZM425.496 91.8746C423.606 92.9086 421.5 93.432 419.16 93.432V95.432C421.812 95.432 424.251 94.8354 426.456 93.6294L425.496 91.8746ZM419.16 91.592C420.892 91.592 422.526 91.1838 424.048 90.3698L423.105 88.6062C421.874 89.2642 420.564 89.592 419.16 89.592V91.592ZM424.048 90.3698C425.605 89.5369 426.842 88.2908 427.759 86.6681L426.018 85.6839C425.271 87.0052 424.299 87.9671 423.105 88.6062L424.048 90.3698ZM427.751 86.6822C428.724 85.0242 429.184 83.048 429.184 80.8H427.184C427.184 82.776 426.781 84.3838 426.026 85.6698L427.751 86.6822ZM429.184 80.8C429.184 78.5579 428.742 76.5871 427.807 74.9319L426.066 75.9161C426.794 77.2049 427.184 78.8181 427.184 80.8H429.184ZM427.807 74.9319C426.891 73.3121 425.67 72.0776 424.136 71.2742L423.208 73.0458C424.362 73.6504 425.317 74.5919 426.066 75.9161L427.807 74.9319ZM424.152 71.2829C422.658 70.4643 421.036 70.056 419.304 70.056V72.056C420.708 72.056 421.999 72.3837 423.192 73.0371L424.152 71.2829ZM419.304 70.056C417.544 70.056 415.906 70.4627 414.408 71.2829L415.368 73.0371C416.559 72.3853 417.864 72.056 419.304 72.056V70.056ZM414.415 71.2788C412.911 72.0862 411.723 73.3254 410.842 74.9465L412.599 75.9015C413.318 74.5786 414.242 73.6418 415.361 73.0412L414.415 71.2788ZM410.842 74.9465C409.944 76.5984 409.52 78.5638 409.52 80.8H411.52C411.52 78.8122 411.897 77.1936 412.599 75.9015L410.842 74.9465ZM409.52 80.8C409.52 83.0596 409.925 85.0362 410.786 86.6866L412.559 85.7614C411.884 84.4678 411.52 82.8284 411.52 80.8H409.52ZM410.794 86.7015C411.673 88.3197 412.856 89.5697 414.351 90.4081L415.329 88.6639C414.2 88.0303 413.271 87.0723 412.551 85.7465L410.794 86.7015ZM414.367 90.4172C415.833 91.2033 417.436 91.592 419.16 91.592V89.592C417.748 89.592 416.472 89.2767 415.313 88.6548L414.367 90.4172ZM475.495 68.512L475.02 69.3919L475.027 69.3956L475.034 69.3992L475.495 68.512ZM479.287 72.304L478.41 72.784V72.784L479.287 72.304ZM480.679 94V95H481.679V94H480.679ZM476.359 94H475.359V95H476.359V94ZM474.391 73.12L473.651 73.7927L473.659 73.8015L473.668 73.8101L474.391 73.12ZM463.735 73.216L464.466 73.8984L464.474 73.8903L463.735 73.216ZM461.719 94V95H462.719V94H461.719ZM457.399 94H456.399V95H457.399V94ZM455.431 73.12L454.691 73.7927L454.699 73.8015L454.708 73.8101L455.431 73.12ZM444.775 73.216L445.506 73.8984L445.514 73.8903L444.775 73.216ZM442.759 94V95H443.759V94H442.759ZM438.391 94H437.391V95H438.391V94ZM438.391 67.696V66.696H437.391V67.696H438.391ZM442.759 67.696H443.759V66.696H442.759V67.696ZM442.759 71.488H441.759V74.9611L443.606 72.0198L442.759 71.488ZM446.215 68.32L445.768 67.4255L445.76 67.4296L446.215 68.32ZM456.919 68.704L456.414 69.5672L456.919 68.704ZM460.711 73.072L459.794 73.4696L460.752 75.6815L461.641 73.4406L460.711 73.072ZM464.359 68.752L464.876 69.6081L464.359 68.752ZM470.023 68.216C471.927 68.216 473.584 68.6162 475.02 69.3919L475.97 67.6321C474.207 66.6798 472.216 66.216 470.023 66.216V68.216ZM475.034 69.3992C476.445 70.133 477.57 71.2488 478.41 72.784L480.165 71.824C479.149 69.9672 477.745 68.555 475.957 67.6248L475.034 69.3992ZM478.41 72.784C479.239 74.2996 479.679 76.1893 479.679 78.496H481.679C481.679 75.9387 481.191 73.7004 480.165 71.824L478.41 72.784ZM479.679 78.496V94H481.679V78.496H479.679ZM480.679 93H476.359V95H480.679V93ZM477.359 94V79.12H475.359V94H477.359ZM477.359 79.12C477.359 76.338 476.663 74.0529 475.115 72.4299L473.668 73.8101C474.744 74.9391 475.359 76.654 475.359 79.12H477.359ZM475.131 72.4473C473.631 70.7968 471.599 70.008 469.159 70.008V72.008C471.135 72.008 472.592 72.6272 473.651 73.7927L475.131 72.4473ZM469.159 70.008C466.65 70.008 464.558 70.8322 462.997 72.5417L464.474 73.8903C465.601 72.6558 467.125 72.008 469.159 72.008V70.008ZM463.004 72.5337C461.429 74.2215 460.719 76.5998 460.719 79.504H462.719C462.719 76.9042 463.354 75.0905 464.466 73.8983L463.004 72.5337ZM460.719 79.504V94H462.719V79.504H460.719ZM461.719 93H457.399V95H461.719V93ZM458.399 94V79.12H456.399V94H458.399ZM458.399 79.12C458.399 76.338 457.703 74.0529 456.155 72.4299L454.708 73.8101C455.784 74.9391 456.399 76.654 456.399 79.12H458.399ZM456.171 72.4473C454.671 70.7968 452.639 70.008 450.199 70.008V72.008C452.175 72.008 453.632 72.6272 454.691 73.7927L456.171 72.4473ZM450.199 70.008C447.69 70.008 445.598 70.8322 444.037 72.5417L445.514 73.8903C446.641 72.6558 448.165 72.008 450.199 72.008V70.008ZM444.044 72.5337C442.469 74.2215 441.759 76.5998 441.759 79.504H443.759C443.759 76.9042 444.394 75.0905 445.506 73.8983L444.044 72.5337ZM441.759 79.504V94H443.759V79.504H441.759ZM442.759 93H438.391V95H442.759V93ZM439.391 94V67.696H437.391V94H439.391ZM438.391 68.696H442.759V66.696H438.391V68.696ZM441.759 67.696V71.488H443.759V67.696H441.759ZM443.606 72.0198C444.375 70.7957 445.392 69.864 446.67 69.2104L445.76 67.4296C444.159 68.248 442.872 69.4283 441.912 70.9562L443.606 72.0198ZM446.663 69.2144C447.986 68.5526 449.448 68.216 451.063 68.216V66.216C449.159 66.216 447.388 66.6154 445.768 67.4256L446.663 69.2144ZM451.063 68.216C453.116 68.216 454.89 68.6755 456.414 69.5672L457.424 67.8408C455.557 66.7485 453.426 66.216 451.063 66.216V68.216ZM456.414 69.5672C457.915 70.4446 459.04 71.7313 459.794 73.4696L461.629 72.6744C460.718 70.5727 459.316 68.9474 457.424 67.8408L456.414 69.5672ZM461.641 73.4406C462.297 71.7861 463.369 70.5181 464.876 69.6081L463.842 67.8959C461.958 69.0339 460.598 70.6459 459.782 72.7034L461.641 73.4406ZM464.876 69.6081C466.408 68.683 468.116 68.216 470.023 68.216V66.216C467.771 66.216 465.702 66.773 463.842 67.8959L464.876 69.6081ZM487.844 73.696L488.724 74.1709L488.728 74.1652L487.844 73.696ZM492.308 68.944L491.805 68.0802L491.798 68.0839L492.308 68.944ZM504.692 68.752L504.188 69.6152L504.692 68.752ZM508.484 72.496L507.609 72.9801L509.484 72.496H508.484ZM508.484 67.696V66.696H507.484V67.696H508.484ZM512.9 67.696H513.9V66.696H512.9V67.696ZM512.9 94V95H513.9V94H512.9ZM508.484 94H507.484V95H508.484V94ZM508.484 89.104H509.484V85.2865L507.613 88.6137L508.484 89.104ZM504.596 92.944L505.101 93.8072L505.106 93.8043L504.596 92.944ZM492.308 92.704L491.788 93.5576L492.308 92.704ZM487.844 87.856L488.731 87.3925L487.844 87.856ZM504.02 72.256L503.509 73.1153L503.521 73.1224L503.533 73.1292L504.02 72.256ZM495.092 72.208L494.596 71.3398L495.092 72.208ZM491.876 75.568L492.755 76.0455L491.876 75.568ZM491.876 86.032L490.994 86.5016L490.998 86.5095L491.876 86.032ZM495.092 89.44L494.581 90.2993L494.589 90.3038L494.596 90.3082L495.092 89.44ZM504.02 89.44L504.517 90.3083L504.523 90.3045L504.02 89.44ZM507.284 86.032L508.163 86.5095L508.167 86.5016L507.284 86.032ZM487.212 80.752C487.212 78.201 487.728 76.0176 488.724 74.1709L486.964 73.2211C485.785 75.4064 485.212 77.927 485.212 80.752H487.212ZM488.728 74.1652C489.735 72.2697 491.098 70.8251 492.819 69.8041L491.798 68.0839C489.743 69.3029 488.13 71.0263 486.961 73.2268L488.728 74.1652ZM492.812 69.8078C494.571 68.7816 496.524 68.264 498.692 68.264V66.264C496.189 66.264 493.885 66.8664 491.805 68.0802L492.812 69.8078ZM498.692 68.264C500.85 68.264 502.669 68.7272 504.188 69.6152L505.197 67.8888C503.323 66.7928 501.143 66.264 498.692 66.264V68.264ZM504.188 69.6152C505.751 70.5296 506.876 71.6549 507.609 72.9801L509.359 72.0119C508.429 70.3291 507.026 68.9584 505.197 67.8888L504.188 69.6152ZM509.484 72.496V67.696H507.484V72.496H509.484ZM508.484 68.696H512.9V66.696H508.484V68.696ZM511.9 67.696V94H513.9V67.696H511.9ZM512.9 93H508.484V95H512.9V93ZM509.484 94V89.104H507.484V94H509.484ZM507.613 88.6137C506.846 89.9764 505.685 91.1365 504.087 92.0837L505.106 93.8043C506.964 92.7035 508.395 91.3036 509.356 89.5943L507.613 88.6137ZM504.092 92.0808C502.571 92.97 500.767 93.432 498.644 93.432V95.432C501.066 95.432 503.23 94.902 505.101 93.8072L504.092 92.0808ZM498.644 93.432C496.481 93.432 494.551 92.9012 492.829 91.8504L491.788 93.5576C493.841 94.8108 496.135 95.432 498.644 95.432V93.432ZM492.829 91.8504C491.106 90.7987 489.74 89.322 488.731 87.3925L486.958 88.3195C488.125 90.55 489.735 92.3053 491.788 93.5576L492.829 91.8504ZM488.731 87.3925C487.727 85.4734 487.212 83.268 487.212 80.752H485.212C485.212 83.548 485.786 86.0786 486.958 88.3195L488.731 87.3925ZM509.484 80.8C509.484 78.6799 509.056 76.7819 508.163 75.1385L506.406 76.0935C507.113 77.3941 507.484 78.9521 507.484 80.8H509.484ZM508.163 75.1385C507.279 73.5112 506.06 72.2489 504.508 71.3828L503.533 73.1292C504.733 73.7991 505.69 74.7768 506.406 76.0935L508.163 75.1385ZM504.532 71.3967C503.026 70.5005 501.36 70.056 499.556 70.056V72.056C501.017 72.056 502.327 72.4115 503.509 73.1153L504.532 71.3967ZM499.556 70.056C497.76 70.056 496.1 70.4807 494.596 71.3398L495.589 73.0762C496.773 72.3993 498.089 72.056 499.556 72.056V70.056ZM494.596 71.3398C493.078 72.2075 491.879 73.4692 490.998 75.0905L492.755 76.0455C493.474 74.7228 494.419 73.7445 495.589 73.0762L494.596 71.3398ZM490.998 75.0905C490.105 76.7339 489.676 78.6319 489.676 80.752H491.676C491.676 78.9041 492.048 77.3461 492.755 76.0455L490.998 75.0905ZM489.676 80.752C489.676 82.9018 490.104 84.8287 490.994 86.5016L492.759 85.5624C492.049 84.2273 491.676 82.6342 491.676 80.752H489.676ZM490.998 86.5095C491.877 88.1278 493.071 89.4008 494.581 90.2993L495.604 88.5807C494.425 87.8792 493.476 86.8802 492.755 85.5545L490.998 86.5095ZM494.596 90.3082C496.1 91.1673 497.76 91.592 499.556 91.592V89.592C498.089 89.592 496.773 89.2487 495.589 88.5718L494.596 90.3082ZM499.556 91.592C501.353 91.592 503.013 91.1673 504.517 90.3082L503.524 88.5718C502.34 89.2487 501.024 89.592 499.556 89.592V91.592ZM504.523 90.3045C506.066 89.4075 507.28 88.1337 508.163 86.5095L506.406 85.5545C505.689 86.8743 504.727 87.8725 503.518 88.5755L504.523 90.3045ZM508.167 86.5016C509.056 84.8309 509.484 82.9207 509.484 80.8H507.484C507.484 82.6473 507.113 84.2251 506.402 85.5624L508.167 86.5016ZM540.874 70.144L540.173 70.8569L540.179 70.8626L540.874 70.144ZM543.85 94V95H544.85V94H543.85ZM539.53 94H538.53V95H539.53V94ZM537.562 73.12L536.83 73.8018L536.838 73.8101L537.562 73.12ZM526.666 73.168L525.943 72.4771L525.935 72.4857L526.666 73.168ZM524.65 94V95H525.65V94H524.65ZM520.282 94H519.282V95H520.282V94ZM520.282 67.696V66.696H519.282V67.696H520.282ZM524.65 67.696H525.65V66.696H524.65V67.696ZM524.65 71.44H523.65V74.8448L525.491 71.9808L524.65 71.44ZM528.154 68.32L527.714 67.4217L527.707 67.4256L528.154 68.32ZM533.098 68.216C536.078 68.216 538.404 69.1167 540.173 70.8568L541.575 69.4312C539.376 67.2673 536.518 66.216 533.098 66.216V68.216ZM540.179 70.8626C541.911 72.5393 542.85 75.0282 542.85 78.496H544.85C544.85 74.6678 543.805 71.5887 541.569 69.4254L540.179 70.8626ZM542.85 78.496V94H544.85V78.496H542.85ZM543.85 93H539.53V95H543.85V93ZM540.53 94V79.12H538.53V94H540.53ZM540.53 79.12C540.53 76.338 539.833 74.0529 538.286 72.4299L536.838 73.8101C537.915 74.9391 538.53 76.654 538.53 79.12H540.53ZM538.294 72.4383C536.758 70.7906 534.681 70.008 532.186 70.008V72.008C534.235 72.008 535.742 72.6334 536.83 73.8017L538.294 72.4383ZM532.186 70.008C529.656 70.008 527.538 70.8083 525.943 72.4771L527.389 73.8589C528.546 72.6477 530.108 72.008 532.186 72.008V70.008ZM525.935 72.4857C524.36 74.1735 523.65 76.5518 523.65 79.456H525.65C525.65 76.8562 526.284 75.0425 527.397 73.8503L525.935 72.4857ZM523.65 79.456V94H525.65V79.456H523.65ZM524.65 93H520.282V95H524.65V93ZM521.282 94V67.696H519.282V94H521.282ZM520.282 68.696H524.65V66.696H520.282V68.696ZM523.65 67.696V71.44H525.65V67.696H523.65ZM525.491 71.9808C526.255 70.7926 527.285 69.8726 528.601 69.2144L527.707 67.4256C526.079 68.2394 524.773 69.3994 523.809 70.8992L525.491 71.9808ZM528.594 69.2182C529.951 68.5538 531.447 68.216 533.098 68.216V66.216C531.164 66.216 529.365 66.6142 527.714 67.4218L528.594 69.2182ZM550.985 73.696L551.865 74.1709L551.868 74.1652L550.985 73.696ZM555.449 68.944L554.945 68.0802L554.939 68.0839L555.449 68.944ZM567.833 68.752L567.328 69.6152L567.833 68.752ZM571.625 72.496L570.75 72.9801L572.625 72.496H571.625ZM571.625 67.696V66.696H570.625V67.696H571.625ZM576.041 67.696H577.041V66.696H576.041V67.696ZM576.041 94V95H577.041V94H576.041ZM571.625 94H570.625V95H571.625V94ZM571.625 89.104H572.625V85.2865L570.753 88.6137L571.625 89.104ZM567.737 92.944L568.242 93.8072L568.247 93.8043L567.737 92.944ZM555.449 92.704L554.928 93.5576L555.449 92.704ZM550.985 87.856L551.871 87.3925L550.985 87.856ZM567.161 72.256L566.65 73.1153L566.662 73.1224L566.674 73.1292L567.161 72.256ZM558.233 72.208L557.737 71.3398L558.233 72.208ZM555.017 75.568L555.896 76.0455L555.017 75.568ZM555.017 86.032L554.134 86.5016L554.138 86.5095L555.017 86.032ZM558.233 89.44L557.722 90.2993L557.729 90.3038L557.737 90.3082L558.233 89.44ZM567.161 89.44L567.657 90.3083L567.664 90.3045L567.161 89.44ZM570.425 86.032L571.304 86.5095L571.308 86.5016L570.425 86.032ZM550.353 80.752C550.353 78.201 550.868 76.0176 551.865 74.1709L550.105 73.2211C548.926 75.4064 548.353 77.927 548.353 80.752H550.353ZM551.868 74.1652C552.875 72.2697 554.238 70.8251 555.959 69.8041L554.939 68.0839C552.884 69.3029 551.271 71.0263 550.102 73.2268L551.868 74.1652ZM555.953 69.8078C557.712 68.7816 559.665 68.264 561.833 68.264V66.264C559.329 66.264 557.026 66.8664 554.945 68.0802L555.953 69.8078ZM561.833 68.264C563.991 68.264 565.81 68.7272 567.328 69.6152L568.338 67.8888C566.464 66.7928 564.284 66.264 561.833 66.264V68.264ZM567.328 69.6152C568.892 70.5296 570.017 71.6549 570.75 72.9801L572.5 72.0119C571.569 70.3291 570.167 68.9584 568.338 67.8888L567.328 69.6152ZM572.625 72.496V67.696H570.625V72.496H572.625ZM571.625 68.696H576.041V66.696H571.625V68.696ZM575.041 67.696V94H577.041V67.696H575.041ZM576.041 93H571.625V95H576.041V93ZM572.625 94V89.104H570.625V94H572.625ZM570.753 88.6137C569.987 89.9764 568.826 91.1365 567.227 92.0837L568.247 93.8043C570.104 92.7035 571.535 91.3036 572.497 89.5943L570.753 88.6137ZM567.232 92.0808C565.712 92.97 563.908 93.432 561.785 93.432V95.432C564.206 95.432 566.37 94.902 568.242 93.8072L567.232 92.0808ZM561.785 93.432C559.622 93.432 557.692 92.9012 555.97 91.8504L554.928 93.5576C556.982 94.8108 559.276 95.432 561.785 95.432V93.432ZM555.97 91.8504C554.246 90.7987 552.88 89.322 551.871 87.3925L550.099 88.3195C551.266 90.55 552.876 92.3053 554.928 93.5576L555.97 91.8504ZM551.871 87.3925C550.867 85.4734 550.353 83.268 550.353 80.752H548.353C548.353 83.548 548.927 86.0786 550.099 88.3195L551.871 87.3925ZM572.625 80.8C572.625 78.6799 572.197 76.7819 571.304 75.1385L569.546 76.0935C570.253 77.3941 570.625 78.9521 570.625 80.8H572.625ZM571.304 75.1385C570.419 73.5112 569.2 72.2489 567.648 71.3828L566.674 73.1292C567.874 73.7991 568.831 74.7768 569.546 76.0935L571.304 75.1385ZM567.673 71.3967C566.167 70.5005 564.501 70.056 562.697 70.056V72.056C564.157 72.056 565.467 72.4115 566.65 73.1153L567.673 71.3967ZM562.697 70.056C560.901 70.056 559.24 70.4807 557.737 71.3398L558.729 73.0762C559.914 72.3993 561.229 72.056 562.697 72.056V70.056ZM557.737 71.3398C556.218 72.2075 555.02 73.4692 554.138 75.0905L555.896 76.0455C556.615 74.7228 557.56 73.7445 558.729 73.0762L557.737 71.3398ZM554.138 75.0905C553.245 76.7339 552.817 78.6319 552.817 80.752H554.817C554.817 78.9041 555.189 77.3461 555.896 76.0455L554.138 75.0905ZM552.817 80.752C552.817 82.9018 553.244 84.8287 554.134 86.5016L555.9 85.5624C555.19 84.2273 554.817 82.6342 554.817 80.752H552.817ZM554.138 86.5095C555.018 88.1278 556.212 89.4008 557.722 90.2993L558.745 88.5807C557.566 87.8792 556.616 86.8802 555.896 85.5545L554.138 86.5095ZM557.737 90.3082C559.24 91.1673 560.901 91.592 562.697 91.592V89.592C561.229 89.592 559.914 89.2487 558.729 88.5718L557.737 90.3082ZM562.697 91.592C564.493 91.592 566.154 91.1673 567.657 90.3082L566.665 88.5718C565.48 89.2487 564.165 89.592 562.697 89.592V91.592ZM567.664 90.3045C569.207 89.4075 570.421 88.1337 571.304 86.5095L569.546 85.5545C568.829 86.8743 567.868 87.8725 566.658 88.5755L567.664 90.3045ZM571.308 86.5016C572.197 84.8309 572.625 82.9207 572.625 80.8H570.625C570.625 82.6473 570.254 84.2251 569.542 85.5624L571.308 86.5016ZM587.935 87.952L588.858 88.3364L589.434 86.952H587.935V87.952ZM582.559 100.864V101.864H583.225L583.482 101.248L582.559 100.864ZM579.631 100.864L578.665 100.602L578.323 101.864H579.631V100.864ZM583.135 87.952V86.952H582.37L582.169 87.6901L583.135 87.952ZM587.011 87.5676L581.635 100.48L583.482 101.248L588.858 88.3364L587.011 87.5676ZM582.559 99.864H579.631V101.864H582.559V99.864ZM580.596 101.126L584.1 88.2139L582.169 87.6901L578.665 100.602L580.596 101.126ZM583.135 88.952H587.935V86.952H583.135V88.952ZM623.351 94L622.487 94.5033L622.776 95H623.351V94ZM615.383 80.32L616.247 79.8167L615.958 79.32H615.383V80.32ZM610.103 80.32V79.32H609.103V80.32H610.103ZM610.103 94V95H611.103V94H610.103ZM605.735 94H604.735V95H605.735V94ZM605.735 60.544V59.544H604.735V60.544H605.735ZM622.919 61.84L622.472 62.7344L622.478 62.7377L622.919 61.84ZM626.135 76.48L625.34 75.873L625.333 75.8823L626.135 76.48ZM620.183 79.984L619.971 79.0067L618.609 79.3022L619.325 80.4981L620.183 79.984ZM628.583 94V95H630.348L629.441 93.4859L628.583 94ZM610.103 76.816H609.103V77.816H610.103V76.816ZM621.863 75.088L622.56 75.8048L622.57 75.7951L621.863 75.088ZM621.863 65.776L621.176 66.5031L621.186 66.5123L621.863 65.776ZM610.103 64.144V63.144H609.103V64.144H610.103ZM624.215 93.4967L616.247 79.8167L614.519 80.8233L622.487 94.5033L624.215 93.4967ZM615.383 79.32H610.103V81.32H615.383V79.32ZM609.103 80.32V94H611.103V80.32H609.103ZM610.103 93H605.735V95H610.103V93ZM606.735 94V60.544H604.735V94H606.735ZM605.735 61.544H616.535V59.544H605.735V61.544ZM616.535 61.544C618.954 61.544 620.919 61.9579 622.472 62.7344L623.366 60.9456C621.463 59.9941 619.172 59.544 616.535 59.544V61.544ZM622.478 62.7377C624.089 63.5285 625.242 64.5713 625.993 65.8502L627.717 64.8378C626.74 63.1727 625.269 61.8795 623.36 60.9423L622.478 62.7377ZM625.993 65.8502C626.757 67.1528 627.151 68.6546 627.151 70.384H629.151C629.151 68.3374 628.681 66.4792 627.717 64.8378L625.993 65.8502ZM627.151 70.384C627.151 72.4782 626.546 74.2948 625.34 75.8731L626.93 77.0869C628.413 75.1452 629.151 72.8978 629.151 70.384H627.151ZM625.333 75.8823C624.198 77.4057 622.449 78.4692 619.971 79.0067L620.395 80.9613C623.229 80.3468 625.448 79.0743 626.937 77.0777L625.333 75.8823ZM619.325 80.4981L627.725 94.5141L629.441 93.4859L621.041 79.4699L619.325 80.4981ZM628.583 93H623.351V95H628.583V93ZM610.103 77.816H616.535V75.816H610.103V77.816ZM616.535 77.816C619.05 77.816 621.122 77.2044 622.56 75.8047L621.166 74.3713C620.236 75.2756 618.756 75.816 616.535 75.816V77.816ZM622.57 75.7951C623.973 74.3925 624.639 72.5537 624.639 70.384H622.639C622.639 72.1183 622.121 73.4155 621.156 74.3809L622.57 75.7951ZM624.639 70.384C624.639 68.1905 623.976 66.3599 622.54 65.0397L621.186 66.5123C622.118 67.3681 622.639 68.6095 622.639 70.384H624.639ZM622.55 65.049C621.136 63.7139 619.062 63.144 616.535 63.144V65.144C618.808 65.144 620.286 65.6621 621.176 66.503L622.55 65.049ZM616.535 63.144H610.103V65.144H616.535V63.144ZM609.103 64.144V76.816H611.103V64.144H609.103ZM658.266 67.696H659.266V66.696H658.266V67.696ZM658.266 94V95H659.266V94H658.266ZM653.898 94H652.898V95H653.898V94ZM653.898 90.112H654.898V86.5968L653.048 89.5856L653.898 90.112ZM650.394 93.28L650.841 94.1745L650.849 94.1706L650.394 93.28ZM639.978 93.136L639.51 94.0198L639.517 94.0234L639.524 94.0269L639.978 93.136ZM636.09 89.296L635.213 89.776L635.216 89.7823L635.22 89.7886L636.09 89.296ZM634.698 67.696V66.696H633.698V67.696H634.698ZM639.018 67.696H640.018V66.696H639.018V67.696ZM640.986 88.528L640.255 89.2098L640.262 89.2181L640.986 88.528ZM651.882 88.432L651.151 87.7497V87.7497L651.882 88.432ZM653.898 67.696V66.696H652.898V67.696H653.898ZM657.266 67.696V94H659.266V67.696H657.266ZM658.266 93H653.898V95H658.266V93ZM654.898 94V90.112H652.898V94H654.898ZM653.048 89.5856C652.319 90.7637 651.292 91.6985 649.939 92.3894L650.849 94.1706C652.504 93.3255 653.814 92.1483 654.748 90.6384L653.048 89.5856ZM649.947 92.3856C648.626 93.0461 647.149 93.384 645.498 93.384V95.384C647.431 95.384 649.219 94.9859 650.841 94.1744L649.947 92.3856ZM645.498 93.384C643.589 93.384 641.908 92.9973 640.432 92.2451L639.524 94.0269C641.313 94.9387 643.311 95.384 645.498 95.384V93.384ZM640.446 92.2522C638.992 91.4826 637.832 90.3429 636.96 88.8034L635.22 89.7886C636.268 91.6411 637.7 93.0614 639.51 94.0198L640.446 92.2522ZM636.967 88.816C636.138 87.3004 635.698 85.4107 635.698 83.104H633.698C633.698 85.6613 634.186 87.8996 635.213 89.776L636.967 88.816ZM635.698 83.104V67.696H633.698V83.104H635.698ZM634.698 68.696H639.018V66.696H634.698V68.696ZM638.018 67.696V82.528H640.018V67.696H638.018ZM638.018 82.528C638.018 85.2836 638.718 87.5602 640.255 89.2097L641.718 87.8463C640.631 86.6798 640.018 84.9564 640.018 82.528H638.018ZM640.262 89.2181C641.8 90.8301 643.874 91.592 646.362 91.592V89.592C644.306 89.592 642.797 88.9779 641.71 87.8379L640.262 89.2181ZM646.362 91.592C648.919 91.592 651.045 90.7945 652.613 89.1143L651.151 87.7497C650.031 88.9495 648.477 89.592 646.362 89.592V91.592ZM652.613 89.1143C654.189 87.4265 654.898 85.0482 654.898 82.144H652.898C652.898 84.7438 652.264 86.5575 651.151 87.7497L652.613 89.1143ZM654.898 82.144V67.696H652.898V82.144H654.898ZM653.898 68.696H658.266V66.696H653.898V68.696ZM665.641 73.696L666.521 74.1709L666.524 74.1652L665.641 73.696ZM670.105 68.944L669.601 68.0802L669.595 68.0839L670.105 68.944ZM682.489 68.752L681.984 69.6152L682.489 68.752ZM686.281 72.496L685.406 72.9801L687.281 72.496H686.281ZM686.281 67.696V66.696H685.281V67.696H686.281ZM690.697 67.696H691.697V66.696H690.697V67.696ZM690.697 94V95H691.697V94H690.697ZM686.281 94H685.281V95H686.281V94ZM686.281 89.104H687.281V85.2865L685.41 88.6137L686.281 89.104ZM682.393 92.944L682.898 93.8072L682.903 93.8043L682.393 92.944ZM670.105 92.704L669.584 93.5576L670.105 92.704ZM665.641 87.856L666.527 87.3925L665.641 87.856ZM681.817 72.256L681.306 73.1153L681.318 73.1224L681.33 73.1292L681.817 72.256ZM672.889 72.208L672.393 71.3398L672.889 72.208ZM669.673 75.568L670.552 76.0455L669.673 75.568ZM669.673 86.032L668.79 86.5016L668.795 86.5095L669.673 86.032ZM672.889 89.44L672.378 90.2993L672.385 90.3038L672.393 90.3082L672.889 89.44ZM681.817 89.44L682.313 90.3083L682.32 90.3045L681.817 89.44ZM685.081 86.032L685.96 86.5095L685.964 86.5016L685.081 86.032ZM665.009 80.752C665.009 78.201 665.525 76.0176 666.521 74.1709L664.761 73.2211C663.582 75.4064 663.009 77.927 663.009 80.752H665.009ZM666.524 74.1652C667.531 72.2697 668.894 70.8251 670.616 69.8041L669.595 68.0839C667.54 69.3029 665.927 71.0263 664.758 73.2268L666.524 74.1652ZM670.609 69.8078C672.368 68.7816 674.321 68.264 676.489 68.264V66.264C673.986 66.264 671.682 66.8664 669.601 68.0802L670.609 69.8078ZM676.489 68.264C678.647 68.264 680.466 68.7272 681.984 69.6152L682.994 67.8888C681.12 66.7928 678.94 66.264 676.489 66.264V68.264ZM681.984 69.6152C683.548 70.5296 684.673 71.6549 685.406 72.9801L687.156 72.0119C686.225 70.3291 684.823 68.9584 682.994 67.8888L681.984 69.6152ZM687.281 72.496V67.696H685.281V72.496H687.281ZM686.281 68.696H690.697V66.696H686.281V68.696ZM689.697 67.696V94H691.697V67.696H689.697ZM690.697 93H686.281V95H690.697V93ZM687.281 94V89.104H685.281V94H687.281ZM685.41 88.6137C684.643 89.9764 683.482 91.1365 681.883 92.0837L682.903 93.8043C684.761 92.7035 686.191 91.3036 687.153 89.5943L685.41 88.6137ZM681.888 92.0808C680.368 92.97 678.564 93.432 676.441 93.432V95.432C678.863 95.432 681.026 94.902 682.898 93.8072L681.888 92.0808ZM676.441 93.432C674.278 93.432 672.348 92.9012 670.626 91.8504L669.584 93.5576C671.638 94.8108 673.932 95.432 676.441 95.432V93.432ZM670.626 91.8504C668.903 90.7987 667.537 89.322 666.527 87.3925L664.755 88.3195C665.922 90.55 667.532 92.3053 669.584 93.5576L670.626 91.8504ZM666.527 87.3925C665.524 85.4734 665.009 83.268 665.009 80.752H663.009C663.009 83.548 663.583 86.0786 664.755 88.3195L666.527 87.3925ZM687.281 80.8C687.281 78.6799 686.853 76.7819 685.96 75.1385L684.203 76.0935C684.91 77.3941 685.281 78.9521 685.281 80.8H687.281ZM685.96 75.1385C685.076 73.5112 683.857 72.2489 682.305 71.3828L681.33 73.1292C682.53 73.7991 683.487 74.7768 684.203 76.0935L685.96 75.1385ZM682.329 71.3967C680.823 70.5005 679.157 70.056 677.353 70.056V72.056C678.813 72.056 680.123 72.4115 681.306 73.1153L682.329 71.3967ZM677.353 70.056C675.557 70.056 673.897 70.4807 672.393 71.3398L673.385 73.0762C674.57 72.3993 675.886 72.056 677.353 72.056V70.056ZM672.393 71.3398C670.875 72.2075 669.676 73.4692 668.795 75.0905L670.552 76.0455C671.271 74.7228 672.216 73.7445 673.385 73.0762L672.393 71.3398ZM668.795 75.0905C667.902 76.7339 667.473 78.6319 667.473 80.752H669.473C669.473 78.9041 669.845 77.3461 670.552 76.0455L668.795 75.0905ZM667.473 80.752C667.473 82.9018 667.901 84.8287 668.79 86.5016L670.556 85.5624C669.846 84.2273 669.473 82.6342 669.473 80.752H667.473ZM668.795 86.5095C669.674 88.1278 670.868 89.4008 672.378 90.2993L673.401 88.5807C672.222 87.8792 671.272 86.8802 670.552 85.5545L668.795 86.5095ZM672.393 90.3082C673.897 91.1673 675.557 91.592 677.353 91.592V89.592C675.886 89.592 674.57 89.2487 673.385 88.5718L672.393 90.3082ZM677.353 91.592C679.15 91.592 680.81 91.1673 682.313 90.3082L681.321 88.5718C680.137 89.2487 678.821 89.592 677.353 89.592V91.592ZM682.32 90.3045C683.863 89.4075 685.077 88.1337 685.96 86.5095L684.203 85.5545C683.485 86.8743 682.524 87.8725 681.315 88.5755L682.32 90.3045ZM685.964 86.5016C686.853 84.8309 687.281 82.9207 687.281 80.8H685.281C685.281 82.6473 684.91 84.2251 684.198 85.5624L685.964 86.5016ZM728.492 94L727.628 94.5033L727.917 95H728.492V94ZM720.524 80.32L721.388 79.8167L721.099 79.32H720.524V80.32ZM715.244 80.32V79.32H714.244V80.32H715.244ZM715.244 94V95H716.244V94H715.244ZM710.876 94H709.876V95H710.876V94ZM710.876 60.544V59.544H709.876V60.544H710.876ZM728.06 61.84L727.612 62.7344L727.619 62.7377L728.06 61.84ZM731.276 76.48L730.481 75.873L730.474 75.8823L731.276 76.48ZM725.324 79.984L725.112 79.0067L723.749 79.3022L724.466 80.4981L725.324 79.984ZM733.724 94V95H735.489L734.581 93.4859L733.724 94ZM715.244 76.816H714.244V77.816H715.244V76.816ZM727.004 75.088L727.701 75.8048L727.711 75.7951L727.004 75.088ZM727.004 65.776L726.317 66.5031L726.327 66.5123L727.004 65.776ZM715.244 64.144V63.144H714.244V64.144H715.244ZM729.356 93.4967L721.388 79.8167L719.66 80.8233L727.628 94.5033L729.356 93.4967ZM720.524 79.32H715.244V81.32H720.524V79.32ZM714.244 80.32V94H716.244V80.32H714.244ZM715.244 93H710.876V95H715.244V93ZM711.876 94V60.544H709.876V94H711.876ZM710.876 61.544H721.676V59.544H710.876V61.544ZM721.676 61.544C724.095 61.544 726.059 61.9579 727.612 62.7344L728.507 60.9456C726.604 59.9941 724.313 59.544 721.676 59.544V61.544ZM727.619 62.7377C729.23 63.5285 730.383 64.5713 731.133 65.8502L732.858 64.8378C731.881 63.1727 730.409 61.8795 728.5 60.9423L727.619 62.7377ZM731.133 65.8502C731.898 67.1528 732.292 68.6546 732.292 70.384H734.292C734.292 68.3374 733.822 66.4792 732.858 64.8378L731.133 65.8502ZM732.292 70.384C732.292 72.4782 731.686 74.2948 730.481 75.8731L732.07 77.0869C733.553 75.1452 734.292 72.8978 734.292 70.384H732.292ZM730.474 75.8823C729.338 77.4057 727.59 78.4692 725.112 79.0067L725.536 80.9613C728.369 80.3468 730.589 79.0743 732.077 77.0777L730.474 75.8823ZM724.466 80.4981L732.866 94.5141L734.581 93.4859L726.181 79.4699L724.466 80.4981ZM733.724 93H728.492V95H733.724V93ZM715.244 77.816H721.676V75.816H715.244V77.816ZM721.676 77.816C724.191 77.816 726.263 77.2044 727.701 75.8047L726.306 74.3713C725.377 75.2756 723.896 75.816 721.676 75.816V77.816ZM727.711 75.7951C729.113 74.3925 729.78 72.5537 729.78 70.384H727.78C727.78 72.1183 727.262 73.4155 726.297 74.3809L727.711 75.7951ZM729.78 70.384C729.78 68.1905 729.117 66.3599 727.68 65.0397L726.327 66.5123C727.258 67.3681 727.78 68.6095 727.78 70.384H729.78ZM727.69 65.049C726.277 63.7139 724.203 63.144 721.676 63.144V65.144C723.949 65.144 725.427 65.6621 726.317 66.503L727.69 65.049ZM721.676 63.144H715.244V65.144H721.676V63.144ZM714.244 64.144V76.816H716.244V64.144H714.244ZM744.831 92.752L744.339 93.6228L744.345 93.6262L744.831 92.752ZM740.127 88L739.246 88.4741L739.251 88.4822L739.255 88.4903L740.127 88ZM740.175 73.696L739.306 73.2013L739.303 73.2057L740.175 73.696ZM744.975 68.944L745.45 69.8241L745.46 69.8182L744.975 68.944ZM758.511 68.944L758.025 69.8182L758.036 69.824L758.511 68.944ZM763.263 73.648L762.391 74.1383L762.397 74.1485L763.263 73.648ZM763.215 88L762.352 87.4953L762.349 87.4995L763.215 88ZM758.367 92.752L758.847 93.6294L758.367 92.752ZM759.279 86.176L758.416 85.6698L758.412 85.6768L758.408 85.6839L759.279 86.176ZM756.063 72.16L755.583 73.0371L755.591 73.0415L755.599 73.0458L756.063 72.16ZM747.279 72.16L747.752 73.0412L747.759 73.0371L747.279 72.16ZM744.111 75.424L744.989 75.9015L744.111 75.424ZM744.063 86.224L743.176 86.6866L743.18 86.6941L743.184 86.7015L744.063 86.224ZM747.231 89.536L746.742 90.4081L746.75 90.4127L746.758 90.4172L747.231 89.536ZM751.551 93.432C749.245 93.432 747.174 92.9097 745.316 91.8778L744.345 93.6262C746.52 94.8343 748.929 95.432 751.551 95.432V93.432ZM745.322 91.8812C743.503 90.8539 742.064 89.4038 740.998 87.5097L739.255 88.4903C740.494 90.6922 742.191 92.4101 744.339 93.6228L745.322 91.8812ZM741.007 87.5259C739.977 85.6123 739.447 83.3798 739.447 80.8H737.447C737.447 83.6602 738.037 86.2277 739.246 88.4741L741.007 87.5259ZM739.447 80.8C739.447 78.2587 739.99 76.0642 741.046 74.1863L739.303 73.2057C738.056 75.4238 737.447 77.9653 737.447 80.8H739.447ZM741.044 74.1907C742.14 72.2659 743.606 70.8189 745.45 69.824L744.5 68.064C742.311 69.245 740.578 70.9661 739.306 73.2013L741.044 74.1907ZM745.46 69.8182C747.316 68.7874 749.402 68.264 751.743 68.264V66.264C749.091 66.264 746.666 66.8606 744.489 68.0698L745.46 69.8182ZM751.743 68.264C754.083 68.264 756.17 68.7874 758.025 69.8182L758.996 68.0698C756.82 66.8606 754.394 66.264 751.743 66.264V68.264ZM758.036 69.824C759.881 70.8198 761.329 72.2506 762.391 74.1383L764.134 73.1577C762.892 70.9494 761.173 69.2442 758.986 68.064L758.036 69.824ZM762.397 74.1485C763.481 76.0228 764.039 78.229 764.039 80.8H766.039C766.039 77.931 765.413 75.3692 764.129 73.1475L762.397 74.1485ZM764.039 80.8C764.039 83.366 763.467 85.5874 762.352 87.4953L764.078 88.5047C765.395 86.2526 766.039 83.674 766.039 80.8H764.039ZM762.349 87.4995C761.255 89.3911 759.772 90.8438 757.887 91.8746L758.847 93.6294C761.058 92.4202 762.806 90.7049 764.081 88.5005L762.349 87.4995ZM757.887 91.8746C755.996 92.9086 753.891 93.432 751.551 93.432V95.432C754.203 95.432 756.641 94.8354 758.847 93.6294L757.887 91.8746ZM751.551 91.592C753.283 91.592 754.917 91.1838 756.438 90.3698L755.495 88.6062C754.265 89.2642 752.955 89.592 751.551 89.592V91.592ZM756.438 90.3698C757.996 89.5369 759.232 88.2908 760.149 86.6681L758.408 85.6839C757.661 87.0052 756.69 87.9671 755.495 88.6062L756.438 90.3698ZM760.141 86.6822C761.114 85.0242 761.575 83.048 761.575 80.8H759.575C759.575 82.776 759.171 84.3838 758.416 85.6698L760.141 86.6822ZM761.575 80.8C761.575 78.5579 761.133 76.5871 760.197 74.9319L758.456 75.9161C759.185 77.2049 759.575 78.8181 759.575 80.8H761.575ZM760.197 74.9319C759.282 73.3121 758.061 72.0776 756.527 71.2742L755.599 73.0458C756.753 73.6504 757.708 74.5919 758.456 75.9161L760.197 74.9319ZM756.543 71.2829C755.048 70.4643 753.427 70.056 751.695 70.056V72.056C753.099 72.056 754.389 72.3837 755.583 73.0371L756.543 71.2829ZM751.695 70.056C749.935 70.056 748.296 70.4627 746.799 71.2829L747.759 73.0371C748.949 72.3853 750.255 72.056 751.695 72.056V70.056ZM746.806 71.2788C745.301 72.0862 744.113 73.3254 743.232 74.9465L744.989 75.9015C745.708 74.5786 746.632 73.6418 747.752 73.0412L746.806 71.2788ZM743.232 74.9465C742.334 76.5984 741.911 78.5638 741.911 80.8H743.911C743.911 78.8122 744.287 77.1936 744.989 75.9015L743.232 74.9465ZM741.911 80.8C741.911 83.0596 742.315 85.0362 743.176 86.6866L744.949 85.7614C744.274 84.4678 743.911 82.8284 743.911 80.8H741.911ZM743.184 86.7015C744.064 88.3197 745.247 89.5697 746.742 90.4081L747.72 88.6639C746.591 88.0303 745.662 87.0723 744.941 85.7465L743.184 86.7015ZM746.758 90.4172C748.223 91.2033 749.827 91.592 751.551 91.592V89.592C750.139 89.592 748.862 89.2767 747.704 88.6548L746.758 90.4172ZM807.886 68.512L807.411 69.3919L807.418 69.3956L807.425 69.3992L807.886 68.512ZM811.678 72.304L810.801 72.784V72.784L811.678 72.304ZM813.07 94V95H814.07V94H813.07ZM808.75 94H807.75V95H808.75V94ZM806.782 73.12L806.042 73.7927L806.05 73.8015L806.058 73.8101L806.782 73.12ZM796.126 73.216L796.857 73.8984L796.864 73.8903L796.126 73.216ZM794.11 94V95H795.11V94H794.11ZM789.79 94H788.79V95H789.79V94ZM787.822 73.12L787.082 73.7927L787.09 73.8015L787.098 73.8101L787.822 73.12ZM777.166 73.216L777.897 73.8984L777.904 73.8903L777.166 73.216ZM775.15 94V95H776.15V94H775.15ZM770.782 94H769.782V95H770.782V94ZM770.782 67.696V66.696H769.782V67.696H770.782ZM775.15 67.696H776.15V66.696H775.15V67.696ZM775.15 71.488H774.15V74.9611L775.997 72.0198L775.15 71.488ZM778.606 68.32L778.159 67.4255L778.151 67.4296L778.606 68.32ZM789.31 68.704L788.805 69.5672L789.31 68.704ZM793.102 73.072L792.184 73.4696L793.143 75.6815L794.031 73.4406L793.102 73.072ZM796.75 68.752L797.267 69.6081L796.75 68.752ZM802.414 68.216C804.317 68.216 805.974 68.6162 807.411 69.3919L808.361 67.6321C806.597 66.6798 804.607 66.216 802.414 66.216V68.216ZM807.425 69.3992C808.836 70.133 809.961 71.2488 810.801 72.784L812.555 71.824C811.539 69.9672 810.136 68.555 808.347 67.6248L807.425 69.3992ZM810.801 72.784C811.63 74.2996 812.07 76.1893 812.07 78.496H814.07C814.07 75.9387 813.582 73.7004 812.555 71.824L810.801 72.784ZM812.07 78.496V94H814.07V78.496H812.07ZM813.07 93H808.75V95H813.07V93ZM809.75 94V79.12H807.75V94H809.75ZM809.75 79.12C809.75 76.338 809.053 74.0529 807.506 72.4299L806.058 73.8101C807.135 74.9391 807.75 76.654 807.75 79.12H809.75ZM807.522 72.4473C806.021 70.7968 803.99 70.008 801.55 70.008V72.008C803.526 72.008 804.983 72.6272 806.042 73.7927L807.522 72.4473ZM801.55 70.008C799.04 70.008 796.948 70.8322 795.387 72.5417L796.864 73.8903C797.992 72.6558 799.516 72.008 801.55 72.008V70.008ZM795.395 72.5337C793.82 74.2215 793.11 76.5998 793.11 79.504H795.11C795.11 76.9042 795.744 75.0905 796.857 73.8983L795.395 72.5337ZM793.11 79.504V94H795.11V79.504H793.11ZM794.11 93H789.79V95H794.11V93ZM790.79 94V79.12H788.79V94H790.79ZM790.79 79.12C790.79 76.338 790.093 74.0529 788.546 72.4299L787.098 73.8101C788.175 74.9391 788.79 76.654 788.79 79.12H790.79ZM788.562 72.4473C787.061 70.7968 785.03 70.008 782.59 70.008V72.008C784.566 72.008 786.023 72.6272 787.082 73.7927L788.562 72.4473ZM782.59 70.008C780.08 70.008 777.988 70.8322 776.427 72.5417L777.904 73.8903C779.032 72.6558 780.556 72.008 782.59 72.008V70.008ZM776.435 72.5337C774.86 74.2215 774.15 76.5998 774.15 79.504H776.15C776.15 76.9042 776.784 75.0905 777.897 73.8983L776.435 72.5337ZM774.15 79.504V94H776.15V79.504H774.15ZM775.15 93H770.782V95H775.15V93ZM771.782 94V67.696H769.782V94H771.782ZM770.782 68.696H775.15V66.696H770.782V68.696ZM774.15 67.696V71.488H776.15V67.696H774.15ZM775.997 72.0198C776.765 70.7957 777.782 69.864 779.061 69.2104L778.151 67.4296C776.549 68.248 775.262 69.4283 774.303 70.9562L775.997 72.0198ZM779.053 69.2144C780.377 68.5526 781.838 68.216 783.454 68.216V66.216C781.55 66.216 779.779 66.6154 778.159 67.4256L779.053 69.2144ZM783.454 68.216C785.507 68.216 787.281 68.6755 788.805 69.5672L789.815 67.8408C787.947 66.7485 785.817 66.216 783.454 66.216V68.216ZM788.805 69.5672C790.305 70.4446 791.431 71.7313 792.184 73.4696L794.019 72.6744C793.109 70.5727 791.707 68.9474 789.815 67.8408L788.805 69.5672ZM794.031 73.4406C794.688 71.7861 795.76 70.5181 797.267 69.6081L796.233 67.8959C794.348 69.0339 792.988 70.6459 792.172 72.7034L794.031 73.4406ZM797.267 69.6081C798.799 68.683 800.507 68.216 802.414 68.216V66.216C800.161 66.216 798.093 66.773 796.233 67.8959L797.267 69.6081ZM820.235 73.696L821.115 74.1709L821.118 74.1652L820.235 73.696ZM824.699 68.944L824.195 68.0802L824.189 68.0839L824.699 68.944ZM837.083 68.752L836.578 69.6152L837.083 68.752ZM840.875 72.496L840 72.9801L841.875 72.496H840.875ZM840.875 67.696V66.696H839.875V67.696H840.875ZM845.291 67.696H846.291V66.696H845.291V67.696ZM845.291 94V95H846.291V94H845.291ZM840.875 94H839.875V95H840.875V94ZM840.875 89.104H841.875V85.2865L840.003 88.6137L840.875 89.104ZM836.987 92.944L837.492 93.8072L837.497 93.8043L836.987 92.944ZM824.699 92.704L824.178 93.5576L824.699 92.704ZM820.235 87.856L821.121 87.3925L820.235 87.856ZM836.411 72.256L835.9 73.1153L835.912 73.1224L835.924 73.1292L836.411 72.256ZM827.483 72.208L826.987 71.3398L827.483 72.208ZM824.267 75.568L825.146 76.0455L824.267 75.568ZM824.267 86.032L823.384 86.5016L823.388 86.5095L824.267 86.032ZM827.483 89.44L826.972 90.2993L826.979 90.3038L826.987 90.3082L827.483 89.44ZM836.411 89.44L836.907 90.3083L836.914 90.3045L836.411 89.44ZM839.675 86.032L840.554 86.5095L840.558 86.5016L839.675 86.032ZM819.603 80.752C819.603 78.201 820.118 76.0176 821.115 74.1709L819.355 73.2211C818.176 75.4064 817.603 77.927 817.603 80.752H819.603ZM821.118 74.1652C822.125 72.2697 823.488 70.8251 825.209 69.8041L824.189 68.0839C822.134 69.3029 820.521 71.0263 819.352 73.2268L821.118 74.1652ZM825.203 69.8078C826.962 68.7816 828.915 68.264 831.083 68.264V66.264C828.579 66.264 826.276 66.8664 824.195 68.0802L825.203 69.8078ZM831.083 68.264C833.241 68.264 835.06 68.7272 836.578 69.6152L837.588 67.8888C835.714 66.7928 833.534 66.264 831.083 66.264V68.264ZM836.578 69.6152C838.142 70.5296 839.267 71.6549 840 72.9801L841.75 72.0119C840.819 70.3291 839.417 68.9584 837.588 67.8888L836.578 69.6152ZM841.875 72.496V67.696H839.875V72.496H841.875ZM840.875 68.696H845.291V66.696H840.875V68.696ZM844.291 67.696V94H846.291V67.696H844.291ZM845.291 93H840.875V95H845.291V93ZM841.875 94V89.104H839.875V94H841.875ZM840.003 88.6137C839.237 89.9764 838.076 91.1365 836.477 92.0837L837.497 93.8043C839.354 92.7035 840.785 91.3036 841.747 89.5943L840.003 88.6137ZM836.482 92.0808C834.962 92.97 833.158 93.432 831.035 93.432V95.432C833.456 95.432 835.62 94.902 837.492 93.8072L836.482 92.0808ZM831.035 93.432C828.872 93.432 826.942 92.9012 825.22 91.8504L824.178 93.5576C826.232 94.8108 828.526 95.432 831.035 95.432V93.432ZM825.22 91.8504C823.496 90.7987 822.13 89.322 821.121 87.3925L819.349 88.3195C820.516 90.55 822.126 92.3053 824.178 93.5576L825.22 91.8504ZM821.121 87.3925C820.117 85.4734 819.603 83.268 819.603 80.752H817.603C817.603 83.548 818.177 86.0786 819.349 88.3195L821.121 87.3925ZM841.875 80.8C841.875 78.6799 841.447 76.7819 840.554 75.1385L838.796 76.0935C839.503 77.3941 839.875 78.9521 839.875 80.8H841.875ZM840.554 75.1385C839.669 73.5112 838.45 72.2489 836.898 71.3828L835.924 73.1292C837.124 73.7991 838.081 74.7768 838.796 76.0935L840.554 75.1385ZM836.923 71.3967C835.417 70.5005 833.751 70.056 831.947 70.056V72.056C833.407 72.056 834.717 72.4115 835.9 73.1153L836.923 71.3967ZM831.947 70.056C830.151 70.056 828.49 70.4807 826.987 71.3398L827.979 73.0762C829.164 72.3993 830.479 72.056 831.947 72.056V70.056ZM826.987 71.3398C825.468 72.2075 824.27 73.4692 823.388 75.0905L825.146 76.0455C825.865 74.7228 826.81 73.7445 827.979 73.0762L826.987 71.3398ZM823.388 75.0905C822.495 76.7339 822.067 78.6319 822.067 80.752H824.067C824.067 78.9041 824.439 77.3461 825.146 76.0455L823.388 75.0905ZM822.067 80.752C822.067 82.9018 822.494 84.8287 823.384 86.5016L825.15 85.5624C824.44 84.2273 824.067 82.6342 824.067 80.752H822.067ZM823.388 86.5095C824.268 88.1278 825.462 89.4008 826.972 90.2993L827.995 88.5807C826.816 87.8792 825.866 86.8802 825.146 85.5545L823.388 86.5095ZM826.987 90.3082C828.49 91.1673 830.151 91.592 831.947 91.592V89.592C830.479 89.592 829.164 89.2487 827.979 88.5718L826.987 90.3082ZM831.947 91.592C833.743 91.592 835.404 91.1673 836.907 90.3082L835.915 88.5718C834.73 89.2487 833.415 89.592 831.947 89.592V91.592ZM836.914 90.3045C838.457 89.4075 839.671 88.1337 840.554 86.5095L838.796 85.5545C838.079 86.8743 837.118 87.8725 835.908 88.5755L836.914 90.3045ZM840.558 86.5016C841.447 84.8309 841.875 82.9207 841.875 80.8H839.875C839.875 82.6473 839.504 84.2251 838.792 85.5624L840.558 86.5016ZM896.506 74.56H897.506V73.56H896.506V74.56ZM896.506 78.256V79.256H897.506V78.256H896.506ZM877.354 78.256H876.354V79.256H877.354V78.256ZM877.354 74.56V73.56H876.354V74.56H877.354ZM895.506 74.56V78.256H897.506V74.56H895.506ZM896.506 77.256H877.354V79.256H896.506V77.256ZM878.354 78.256V74.56H876.354V78.256H878.354ZM877.354 75.56H896.506V73.56H877.354V75.56ZM956.602 94V95H957.602V94H956.602ZM952.234 94L951.399 94.5505L951.695 95H952.234V94ZM934.666 67.36L935.5 66.8095L933.666 64.0272V67.36H934.666ZM934.666 94V95H935.666V94H934.666ZM930.298 94H929.298V95H930.298V94ZM930.298 60.496V59.496H929.298V60.496H930.298ZM934.666 60.496L935.5 59.9448L935.203 59.496H934.666V60.496ZM952.234 87.088L951.399 87.6392L953.234 90.4158V87.088H952.234ZM952.234 60.496V59.496H951.234V60.496H952.234ZM956.602 60.496H957.602V59.496H956.602V60.496ZM956.602 93H952.234V95H956.602V93ZM953.068 93.4495L935.5 66.8095L933.831 67.9105L951.399 94.5505L953.068 93.4495ZM933.666 67.36V94H935.666V67.36H933.666ZM934.666 93H930.298V95H934.666V93ZM931.298 94V60.496H929.298V94H931.298ZM930.298 61.496H934.666V59.496H930.298V61.496ZM933.831 61.0472L951.399 87.6392L953.068 86.5368L935.5 59.9448L933.831 61.0472ZM953.234 87.088V60.496H951.234V87.088H953.234ZM952.234 61.496H956.602V59.496H952.234V61.496ZM955.602 60.496V94H957.602V60.496H955.602ZM963.088 64.096L963.951 64.6012L963.088 64.096ZM966.256 61.072L966.72 61.9579L966.727 61.9538L966.256 61.072ZM975.376 61.072L974.895 61.9491L974.903 61.9535L974.912 61.9578L975.376 61.072ZM978.544 64.096L977.681 64.6012V64.6012L978.544 64.096ZM978.496 73.216L977.636 72.7045L977.633 72.7108L978.496 73.216ZM975.28 76.288L974.808 75.4062L974.799 75.4109L975.28 76.288ZM966.208 76.288L965.718 77.1602L965.727 77.1651L966.208 76.288ZM963.088 73.216L963.951 72.7108L963.088 73.216ZM974.56 64.288L973.842 64.9841L973.847 64.9897L973.852 64.9951L974.56 64.288ZM967.024 64.288L966.306 63.5919L966.3 63.5975L966.295 63.6033L967.024 64.288ZM967.024 73.072L966.295 73.7567L966.3 73.7623L966.305 73.7678L967.024 73.072ZM962.936 68.656C962.936 67.0808 963.284 65.7399 963.951 64.6012L962.225 63.5908C961.355 65.0761 960.936 66.7752 960.936 68.656H962.936ZM963.951 64.6012C964.624 63.4506 965.542 62.5747 966.72 61.9578L965.792 60.1862C964.281 60.9773 963.087 62.1174 962.225 63.5908L963.951 64.6012ZM966.727 61.9538C967.949 61.3005 969.305 60.968 970.816 60.968V58.968C968.998 58.968 967.315 59.3715 965.784 60.1902L966.727 61.9538ZM970.816 60.968C972.362 60.968 973.714 61.3021 974.895 61.9491L975.856 60.1949C974.349 59.3699 972.661 58.968 970.816 58.968V60.968ZM974.912 61.9578C976.089 62.5747 977.007 63.4506 977.681 64.6012L979.407 63.5908C978.544 62.1174 977.35 60.9773 975.84 60.1862L974.912 61.9578ZM977.681 64.6012C978.347 65.7399 978.696 67.0808 978.696 68.656H980.696C980.696 66.7752 980.276 65.0761 979.407 63.5908L977.681 64.6012ZM978.696 68.656C978.696 70.1877 978.336 71.5282 977.636 72.7045L979.355 73.7275C980.255 72.2158 980.696 70.5163 980.696 68.656H978.696ZM977.633 72.7108C976.96 73.8592 976.026 74.7548 974.808 75.4062L975.751 77.1698C977.285 76.3492 978.495 75.1968 979.359 73.7212L977.633 72.7108ZM974.799 75.4109C973.615 76.0594 972.279 76.392 970.768 76.392V78.392C972.585 78.392 974.256 77.9886 975.76 77.1651L974.799 75.4109ZM970.768 76.392C969.221 76.392 967.869 76.0579 966.688 75.4109L965.727 77.1651C967.234 77.9901 968.922 78.392 970.768 78.392V76.392ZM966.697 75.4159C965.542 74.7678 964.63 73.8712 963.951 72.7108L962.225 73.7212C963.081 75.1848 964.25 76.3362 965.718 77.1601L966.697 75.4159ZM963.951 72.7108C963.284 71.5721 962.936 70.2312 962.936 68.656H960.936C960.936 70.5368 961.355 72.2359 962.225 73.7212L963.951 72.7108ZM977.144 68.704C977.144 66.6245 976.557 64.8708 975.267 63.5809L973.852 64.9951C974.674 65.8172 975.144 67.0075 975.144 68.704H977.144ZM975.277 63.5919C974.065 62.3415 972.558 61.704 970.816 61.704V63.704C972.017 63.704 973.006 64.1225 973.842 64.9841L975.277 63.5919ZM970.816 61.704C969.048 61.704 967.523 62.3368 966.306 63.5919L967.741 64.9841C968.572 64.1272 969.575 63.704 970.816 63.704V61.704ZM966.295 63.6033C965.081 64.8956 964.536 66.6411 964.536 68.704H966.536C966.536 66.9909 966.982 65.7924 967.752 64.9727L966.295 63.6033ZM964.536 68.704C964.536 70.7402 965.084 72.4675 966.295 73.7567L967.752 72.3873C966.979 71.5645 966.536 70.3798 966.536 68.704H964.536ZM966.305 73.7678C967.497 74.9979 969.009 75.608 970.768 75.608V73.608C969.518 73.608 968.534 73.1941 967.742 72.3762L966.305 73.7678ZM970.768 75.608C972.509 75.608 974.026 74.9716 975.267 73.7311L973.852 72.3169C972.981 73.1884 971.97 73.608 970.768 73.608V75.608ZM975.267 73.7311C976.55 72.4476 977.144 70.7307 977.144 68.704H975.144C975.144 70.3253 974.681 71.4884 973.852 72.3169L975.267 73.7311ZM983.082 63.28H982.082V64.28H983.082V63.28ZM983.082 59.296V58.296H982.082V59.296H983.082ZM992.106 59.296H993.106V58.296H992.106V59.296ZM992.106 94V95H993.106V94H992.106ZM987.69 94H986.69V95H987.69V94ZM987.69 63.28H988.69V62.28H987.69V63.28ZM984.082 63.28V59.296H982.082V63.28H984.082ZM983.082 60.296H992.106V58.296H983.082V60.296ZM991.106 59.296V94H993.106V59.296H991.106ZM992.106 93H987.69V95H992.106V93ZM988.69 94V63.28H986.69V94H988.69ZM987.69 62.28H983.082V64.28H987.69V62.28ZM999.081 90.496L998.455 89.7163L998.081 90.0166V90.496H999.081ZM1008.63 82.48L1009.3 83.2223L1009.31 83.2172L1008.63 82.48ZM1014.44 75.904L1013.62 75.3336L1013.62 75.336L1014.44 75.904ZM1015.3 64.24L1014.53 64.8721L1014.54 64.8833L1014.55 64.8942L1015.3 64.24ZM1005.37 64.48L1004.62 63.8178L1004.62 63.819L1005.37 64.48ZM1003.45 69.904V70.904H1004.41L1004.45 69.9462L1003.45 69.904ZM999.225 69.904L998.225 69.8683L998.188 70.904H999.225V69.904ZM1002.49 61.6L1003.18 62.3239L1002.49 61.6ZM1018.23 61.408L1017.54 62.133L1017.55 62.1387L1018.23 61.408ZM1018.76 76.72L1017.92 76.1852L1017.91 76.188L1018.76 76.72ZM1013.38 83.344L1014.07 84.0739L1014.07 84.0681L1013.38 83.344ZM1005.66 89.968L1005.03 89.1895L1002.82 90.968H1005.66V89.968ZM1022.17 89.968H1023.17V88.968H1022.17V89.968ZM1022.17 93.616V94.616H1023.17V93.616H1022.17ZM999.081 93.616H998.081V94.616H999.081V93.616ZM999.707 91.2757C1003.78 88.0065 1006.98 85.3209 1009.3 83.2223L1007.96 81.7377C1005.68 83.7991 1002.51 86.4575 998.455 89.7163L999.707 91.2757ZM1009.31 83.2172C1011.66 81.061 1013.65 78.8132 1015.26 76.472L1013.62 75.336C1012.1 77.5388 1010.21 79.675 1007.96 81.7428L1009.31 83.2172ZM1015.26 76.4744C1016.95 74.0482 1017.84 71.5969 1017.84 69.136H1015.84C1015.84 71.0911 1015.13 73.1518 1013.62 75.3336L1015.26 76.4744ZM1017.84 69.136C1017.84 66.8957 1017.29 65.0041 1016.06 63.5858L1014.55 64.8942C1015.37 65.8439 1015.84 67.2163 1015.84 69.136H1017.84ZM1016.08 63.6079C1014.83 62.0722 1012.86 61.416 1010.46 61.416V63.416C1012.53 63.416 1013.8 63.9758 1014.53 64.8721L1016.08 63.6079ZM1010.46 61.416C1008.05 61.416 1006.06 62.187 1004.62 63.8178L1006.12 65.1422C1007.11 64.021 1008.51 63.416 1010.46 63.416V61.416ZM1004.62 63.819C1003.25 65.3766 1002.55 67.424 1002.45 69.8618L1004.45 69.9462C1004.54 67.84 1005.12 66.2714 1006.12 65.141L1004.62 63.819ZM1003.45 68.904H999.225V70.904H1003.45V68.904ZM1000.22 69.9397C1000.35 66.5435 1001.37 64.0508 1003.18 62.3239L1001.8 60.8761C999.515 63.0532 998.36 66.0965 998.225 69.8683L1000.22 69.9397ZM1003.18 62.3239C1005.01 60.5746 1007.39 59.672 1010.41 59.672V57.672C1006.96 57.672 1004.06 58.7214 1001.8 60.8761L1003.18 62.3239ZM1010.41 59.672C1013.51 59.672 1015.85 60.5262 1017.54 62.133L1018.92 60.683C1016.77 58.6418 1013.9 57.672 1010.41 57.672V59.672ZM1017.55 62.1387C1019.26 63.7365 1020.16 65.9617 1020.16 68.944H1022.16C1022.16 65.5263 1021.11 62.7275 1018.92 60.6773L1017.55 62.1387ZM1020.16 68.944C1020.16 71.3874 1019.43 73.7964 1017.92 76.1852L1019.61 77.2548C1021.29 74.5876 1022.16 71.8126 1022.16 68.944H1020.16ZM1017.91 76.188C1016.39 78.6178 1014.65 80.7604 1012.7 82.6199L1014.07 84.0681C1016.15 82.0876 1018 79.8142 1019.61 77.2519L1017.91 76.188ZM1012.7 82.6141C1010.71 84.4795 1008.15 86.6706 1005.03 89.1895L1006.28 90.7465C1009.43 88.2094 1012.03 85.9845 1014.07 84.0739L1012.7 82.6141ZM1005.66 90.968H1022.17V88.968H1005.66V90.968ZM1021.17 89.968V93.616H1023.17V89.968H1021.17ZM1022.17 92.616H999.081V94.616H1022.17V92.616ZM1000.08 93.616V90.496H998.081V93.616H1000.08ZM1027.12 68.032L1026.13 67.9561L1026.04 69.032H1027.12V68.032ZM1030.53 61.12L1029.9 60.3439L1030.53 61.12ZM1044.11 59.824L1043.66 60.7148L1043.67 60.7203L1043.68 60.7255L1044.11 59.824ZM1047.71 62.992L1046.85 63.5035L1046.86 63.511L1046.86 63.5184L1047.71 62.992ZM1047.23 72.688L1046.45 72.0632L1046.44 72.0741L1047.23 72.688ZM1042.82 75.472L1042.6 74.497L1041.82 74.6744V75.472H1042.82ZM1042.82 75.712H1041.82V76.4957L1042.58 76.683L1042.82 75.712ZM1048.34 89.584L1049.2 90.0843L1049.21 90.0761L1048.34 89.584ZM1044.59 92.992L1045.04 93.8864L1044.59 92.992ZM1030.24 91.6L1029.61 92.372L1029.61 92.3775L1030.24 91.6ZM1026.59 84.016V83.016H1025.51L1025.6 84.0942L1026.59 84.016ZM1030.82 84.016L1031.81 83.9001L1031.71 83.016H1030.82V84.016ZM1033.17 88.72L1032.5 89.4615L1033.17 88.72ZM1043.63 88.816L1042.93 88.1089L1043.63 88.816ZM1043.01 79.072L1043.56 78.2374L1043.01 79.072ZM1034.66 77.488H1033.66V78.488H1034.66V77.488ZM1034.66 73.84V72.84H1033.66V73.84H1034.66ZM1035.81 73.84V74.8401L1035.82 74.8399L1035.81 73.84ZM1042.48 72.4L1043.01 73.251L1043.01 73.247L1043.02 73.2429L1042.48 72.4ZM1043.06 63.904L1042.37 64.6322L1042.38 64.6372L1042.38 64.642L1043.06 63.904ZM1031.39 68.032V69.032H1032.27L1032.39 68.1606L1031.39 68.032ZM1028.12 68.1079C1028.33 65.4018 1029.35 63.3655 1031.16 61.8961L1029.9 60.3439C1027.61 62.2025 1026.37 64.7742 1026.13 67.9561L1028.12 68.1079ZM1031.16 61.8961C1032.99 60.4087 1035.41 59.624 1038.5 59.624V57.624C1035.06 57.624 1032.16 58.5033 1029.9 60.3439L1031.16 61.8961ZM1038.5 59.624C1040.55 59.624 1042.26 60.0015 1043.66 60.7148L1044.57 58.9332C1042.83 58.0465 1040.8 57.624 1038.5 57.624V59.624ZM1043.68 60.7255C1045.13 61.4202 1046.17 62.3507 1046.85 63.5035L1048.57 62.4805C1047.66 60.9453 1046.3 59.7638 1044.55 58.9225L1043.68 60.7255ZM1046.86 63.5184C1047.59 64.6926 1047.96 66.0278 1047.96 67.552H1049.96C1049.96 65.6842 1049.5 63.9794 1048.56 62.4656L1046.86 63.5184ZM1047.96 67.552C1047.96 69.3274 1047.45 70.8145 1046.45 72.0633L1048.02 73.3127C1049.32 71.6815 1049.96 69.7446 1049.96 67.552H1047.96ZM1046.44 72.0741C1045.47 73.3269 1044.2 74.1309 1042.6 74.497L1043.04 76.447C1045.08 75.9811 1046.76 74.9291 1048.02 73.3019L1046.44 72.0741ZM1041.82 75.472V75.712H1043.82V75.472H1041.82ZM1042.58 76.683C1044.47 77.1487 1045.92 78.0489 1046.98 79.3647L1048.54 78.1073C1047.17 76.4151 1045.33 75.2993 1043.06 74.741L1042.58 76.683ZM1046.98 79.3647C1048.02 80.649 1048.59 82.3766 1048.59 84.64H1050.59C1050.59 82.0394 1049.93 79.831 1048.54 78.1073L1046.98 79.3647ZM1048.59 84.64C1048.59 86.3056 1048.21 87.7818 1047.47 89.0919L1049.21 90.0761C1050.13 88.4422 1050.59 86.6224 1050.59 84.64H1048.59ZM1047.47 89.0837C1046.75 90.3345 1045.66 91.3424 1044.15 92.0976L1045.04 93.8864C1046.86 92.9776 1048.26 91.7135 1049.2 90.0843L1047.47 89.0837ZM1044.15 92.0976C1042.65 92.8447 1040.81 93.24 1038.59 93.24V95.24C1041.05 95.24 1043.21 94.8033 1045.04 93.8864L1044.15 92.0976ZM1038.59 93.24C1035.38 93.24 1032.83 92.4098 1030.87 90.8225L1029.61 92.3775C1032 94.3102 1035.02 95.24 1038.59 95.24V93.24ZM1030.88 90.8281C1028.95 89.2368 1027.83 86.9786 1027.59 83.9378L1025.6 84.0942C1025.87 87.5814 1027.19 90.3792 1029.61 92.3719L1030.88 90.8281ZM1026.59 85.016H1030.82V83.016H1026.59V85.016ZM1029.82 84.1319C1030.07 86.2752 1030.96 88.0716 1032.5 89.4615L1033.84 87.9785C1032.69 86.9364 1032.01 85.5968 1031.81 83.9001L1029.82 84.1319ZM1032.5 89.4615C1034.07 90.8808 1036.12 91.544 1038.55 91.544V89.544C1036.49 89.544 1034.96 88.9912 1033.84 87.9785L1032.5 89.4615ZM1038.55 91.544C1040.95 91.544 1042.94 90.924 1044.34 89.5231L1042.93 88.1089C1042.02 89.012 1040.62 89.544 1038.55 89.544V91.544ZM1044.34 89.5231C1045.73 88.1304 1046.41 86.3457 1046.41 84.256H1044.41C1044.41 85.8783 1043.9 87.1336 1042.93 88.1089L1044.34 89.5231ZM1046.41 84.256C1046.41 81.6161 1045.51 79.5258 1043.56 78.2374L1042.46 79.9066C1043.71 80.7302 1044.41 82.0959 1044.41 84.256H1046.41ZM1043.56 78.2374C1041.72 77.0224 1039.07 76.488 1035.76 76.488V78.488C1038.92 78.488 1041.1 79.0096 1042.46 79.9066L1043.56 78.2374ZM1035.76 76.488H1034.66V78.488H1035.76V76.488ZM1035.66 77.488V73.84H1033.66V77.488H1035.66ZM1034.66 74.84H1035.81V72.84H1034.66V74.84ZM1035.82 74.8399C1038.84 74.8071 1041.28 74.3185 1043.01 73.251L1041.96 71.549C1040.68 72.3375 1038.67 72.8089 1035.8 72.8401L1035.82 74.8399ZM1043.02 73.2429C1044.85 72.0761 1045.74 70.2641 1045.74 67.984H1043.74C1043.74 69.6719 1043.12 70.8039 1041.94 71.5571L1043.02 73.2429ZM1045.74 67.984C1045.74 66.0439 1045.09 64.4028 1043.73 63.166L1042.38 64.642C1043.27 65.4532 1043.74 66.5321 1043.74 67.984H1045.74ZM1043.74 63.1758C1042.41 61.9211 1040.56 61.368 1038.35 61.368V63.368C1040.24 63.368 1041.53 63.8389 1042.37 64.6322L1043.74 63.1758ZM1038.35 61.368C1036.19 61.368 1034.35 61.9285 1032.91 63.1391L1034.2 64.6689C1035.19 63.8315 1036.55 63.368 1038.35 63.368V61.368ZM1032.91 63.1391C1031.48 64.3403 1030.66 65.9532 1030.4 67.9034L1032.39 68.1606C1032.58 66.6548 1033.19 65.5157 1034.2 64.6689L1032.91 63.1391ZM1031.39 67.032H1027.12V69.032H1031.39V67.032Z" fill="#390000" mask="url(#path-2-outside-1_214_243)"/>
</svg>
